<svg xmlns="http://www.w3.org/2000/svg" width="800" height="3" fill="none" viewBox="0 0 800 3"><path fill="#000" d="M770.102 2.906c.082.063-1.004.095-2.994.094-.081-.063 1.004-.095 2.994-.094m-102.695-.168c-.004.041.012.083.012.125h-3.485c-1.142.002-2.494.019-2.499-.03 1.352-.001 2.596.009 3.497-.033.902-.041.244-.075 2.475-.062m1.975-.094 2.014.155 4.977-.063c-.542.104-2.768.135-5.96.126zm11.035.09 1.95.032h-2.997l-.979.095-.028-.188h1.996zm7.934.03c.195.031-.647.102-1.98.094-.005-.031-.015-.062-.015-.094zm-30.92-.024c.039.006.014.01-.03.016l2.029.015c-1.398.084-4.366.065-6.97.08-1.594.01-1.936.01-2.997-.031l2.527-.015.454-.064c1.685-.005 2.419.027 3.498.062l-.51-.062h1.999m48.883.114h-.998q-.007-.031-.009-.062h.998q.008.03.009.062M122.046.021c2.277.023 4.231.034 5.966.09 1.321-.083 3.106-.03 4.645-.035 4.171-.016 8.526-.02 11.96.004 3.433.023 2.924.032 6.402.026 2.5-.005 6.113.023 8.85.03-.113.02-.318.041-.463.062 1.47-.01 2.995-.016 4.479-.023.369-.002.713.017.959.015 2.094-.017 3.802-.064 6.006-.058 1.466.042 1.18.104 3.521.093L173.364.13c1.507.002 3.014.032 4.471.031.829 0 1.568-.027 2.051-.029 4.08-.016 6.27.031 8.957.118l2.969-.094 3.504.06-2.009-.093c1.417-.016 2.227.019 3.47.022.856.002 1.053-.025 2.018-.025 3.069-.001 6.34 0 9.46-.002.014.03.017.062.021.093q1.742-.03 3.482-.064-.239.048-.485.094l3.476-.095c.67.062 1.366.125 2.017.187 1.23-.017.184-.106 1.541-.141 1.152-.03 1.284.007 2.491.006 1.206-.001 1.23-.05 3.061-.057S229.66.13 231.65.14c2.431.013 3.721.062 6.061.061 2.896 0 5.007 0 8.126.004.766 0 3.177.055 3.852.083.952-.073 3.932-.042 5.23-.067 1.297-.025.055-.074 1.758-.09.233.02.679.04.925.06.744-.008.141-.027 1.361-.027 1.221 0 5.202.015 6.415.028 1.976.022 1.66.069 3.76.058-.032-.02.009-.04.009-.061l4.458-.003q.001.031.01.062c4.854-.132 9.71-.176 14.947-.04C289.96.19 291.13.155 292.7.15c4.012-.012 8.885.041 12.683.054 2.896.01 4.756.008 7.141-.032.797.05 1.672.102 2.497.153-.009-.041-.008-.084-.022-.124 1.502-.02 2.176.02 3.492.023 1.316.001.52-.048 2.392-.056.694-.004 3.904-.001 5.652-.005 3.12-.007 6.536-.02 10.111-.03 3.005-.008 6.164.046 6.219.164.009.017-1.282-.004-.513.043 1.198.073 3.907.157-2.386.161.068.035.041.063.018.096-2.701-.065-5.633.029-2.249.059 1.272.01 5.94-.079 6.647-.122 1.785-.11-1.27-.184-.186-.304.163-.018 5.243-.1 6.158-.104 1.302-.006 1.376.02 2.145.024 1.398.008 1.508-.032 2.961-.03 1.666.004 3.469.05 5.395.03-.633.043-1.311.084-1.962.126 3.315 0 3.238-.109 5.459-.158l2.115.06 2.381-.017c2.668.076 6.198.234-.962.143-.136.061.27.104-.161.17-.296.046-1.327.073.714.11.136-.04.327-.082.482-.123 3.038-.012 3.607-.115 4.477-.19.359-.032-1.288-.07-.446-.092 1.307-.034 3.252.048 2.887.09h1.01c.009-.02 0-.04.019-.062 2.004.016 3.622-.03 5.398-.035 1.461-.003 1.617.031 3.064.032 2.673.002 3.111-.05 6.467-.062 1.43-.005 7.11.046 9.488.047.61 0 .912-.03 1.95-.021 2.344.021 4.984.092 4.535.182.523-.02.998-.041 1.498-.062-1.252-.04-2.595-.064-2.518-.125 2.5.043 4.74-.014 7.432.001.628.004 1.77.072 2.545.058.031-.03-.063-.063.036-.093.76-.018 2.988.02 3.284.021 2.021 0 3.698.029 5.032.032 1.334.004 2.21-.057 3.006-.053 2.337.01 3.554.076 5.121.118.141-.02.337-.042.501-.062l2.942-.002c-.001.021.036.042.027.063 2.286-.052 3.566-.071 6.595-.065 1.703.004 2.473.036 3.857-.03.701.018 1.335.036 2.008.055 4.864-.065 8.635.04 13.443.063q.03.03.052.061l1.99-.016-2.005-.109c1.567-.012 3.036.024 4.398.03 2.167.007 3.547-.026 5.56-.033.018.02.053.04.076.06l4.413.063 3.995-.126 2.112.06 1.882-.031-.479.125 5.451-.22 2.017.155 2.487-.126 3.949.031q.036.03.07.062l2.463-.033c0 .021.018.042 0 .063 1.571-.036 2.737-.071 4.978-.06 1.238.006 5.743.032 6.649.022 2.91-.032 2.742-.083 5.82-.061-.022.02.055.04.073.06l6.436.093-.091-.062-1.422-.03 5.578-.064c3.407.052 6.177.002 9.906.033 1.603.014 3.067.088 5.417.053.068-.018.026-.04.067-.06 2.368-.011 5.893.041 7.956.075 1.503.024 1.177.053 2.976.014.496.032 1.028.063 1.538.094l.482-.125c2.423.043 3.714.033 5.481-.033l1.48.046c-1.43.045-.857.072.537.11.846-.006.547-.045.983-.064 1.731-.076 2.71-.046 4.919-.042 3.593.007 6.463-.01 10.019.011.669.004 1.516.037 2.49.026.041.032.028.063.046.094 2.469-.033 4.104-.1 6.946-.096.018.02.046.041.064.062l3.925-.001c.004-.02.013-.041.018-.062l2.502.06 4.48-.062c.315.091-1.909.044-3.494.096-.655.021-.911.067-1.471.093l4.984-.002c.355-.051.606-.104 1.025-.155 1.202-.014 4.414.03 5.295.03 6.95-.004 12.503-.037 19.321-.008.929.003 1.463-.033 2.92-.03 1.872.002 5.1.054 6.876.09 1.034-.019 1.964-.04 2.957-.06l4.111.09c1.939-.005 3.934-.038 5.874-.032 2.373.009 3.218.05 5.463-.002q.253.032.513.063c3.384-.062 6.741-.026 9.988.029.155-.031.341-.063.473-.094 2.491-.022 3.216.046 5.606.054 1.189.004 2.078-.048 3.949-.02 1.18.017 1.942.069 3.845.025 1.648.044 1.099.101 3.699.096-.232-.189 4.335-.053 4.959-.05 3.683.023 4.913-.009 7.895.013-.018-.022-.039-.041.07-.061 2.018-.027 5.684.026 7.205.029 3.985.006 7.729.005 10.99-.004 3.884-.01 5.013.034 8.255.057 2.733.02 5.034-.008 7.867.008.606.003 1.554.036 2.46.027.054.021.046.041.082.062 3.561-.074 6.39-.055 10.324-.031 2.25.014 4.007.013 6.321.025.897.004 1.52-.033 2.731-.025.92.006 2.228.041 3.494.027.055.022.069.041.073.062 2.633-.054 3.627-.015 6.473-.001 2.062.01 2.437-.011 5.292-.01 3.302.003 9.692.022 13.495.042 2.058.01 4.424.075 6.018.08s1.104-.039 2.67-.022c-.833.082 1.009.107 1.798.174 2.04.175 2.118.38 2.301.555.045.045-1.302.05-1.029.083h2.982c-.349.047.842.098 1.034.136.246.049-.733.065-.879.1l-.027.001c-.218.052.478.071-.009.127-.109.012.104.042-.165.055-1.749.086-4.643.053-4.925-.043h-2.475q0 .03.009.063l-4.496-.062 2.002.078c-.495.026-.997.051-1.489.078-1.603-.028-3.177-.015-4.916-.036-1.734-.02-1.746-.065-3.986-.026-1.038-.016-2.121-.08-3.027-.09-2.787-.027-.393.113-.534.154l4.983-.032q.013.046.034.093c1.435.005 4.033.063 4.98.013-.004-.015-.013-.03-.018-.045h.998l.97.08 3.028.014.027.125c1.822.002 3.317.055 4.984.015l-3.977-.094c-.218-.1 1.161-.167 3.434-.235 1.393.047 2.796.065 2.404.141-.143.027-1.769.093-1.669.123.193.057 2.197.081 1.798.143l-5.933.033-2.506.093c-.673-.043 1.425-.067 1.935-.094.617-.033-.749-.058-.47-.094a98 98 0 0 0-4.48.063c-1.411-.03-1.221-.06-1.544-.106-.228-.033-1.922-.018-2.45-.05-.592.042.87.06.341.111-.3.029-2.274.06-1.819.108-3.191.005-4.932-.08-8.001-.092l3.003.078-5.493-.045c-2.04.07-.752.138-4.468.125l1.999.124c-2.523.025-4.432-.04-6.513-.055-3.62-.025-4.69-.002-6.412-.114.988-.057 1.947-.115 2.921-.172l-3.015.02c-.237.089-2.442.019-3.476-.02.332-.03.659-.062.992-.093-2.737.075-3.837.134-3.482.25l-1.932.002a1 1 0 0 1-.034.093h-3.982l.909-.047-1.422-.046-1.974.059c-.834-.01-1.673-.018-2.506-.027.742.074 0 .143.028.219-1.84.003-3.684-.005-5.506 0-1.238.003-1.641.036-3.039.033-1.699-.003-3.452-.05-5.414-.03.132-.043 1.453-.047 2.673-.06 1.22-.014 1.58-.013 1.306-.066 1.817.014 3.162.014 4.956-.001-.1.058.128.068 2.036.062-.542-.044.654-.07.687-.11.031-.038-1.129-.048-.632-.092.219-.02 2.247-.056 1.88-.08l-3.507.03-.47.095c-3.551-.016-5.218.075-8.45.096l-1.007-.062-.479.156c-3.092.002-6.434.029-6.995-.092l3.995.03.983-.125 9.96-.033-1.025-.188 4.984-.032.027.094 9.473.058 2.472-.092-3.995-.046c1.403-.053 2.92-.05 4.983-.048-1.471-.082.888-.145-1.525-.218l.518.125-2.966.001q-.048.03-.088.06c-2.391-.002-2.019.034-1.914.096-1.448.006-2.25.004-2.014-.046.141-.03 1.184-.053.491-.08-1.37.059-2.308-.002-3.833.005-1.107.005-1.207.048-2.218.057-1.808.014-3.606.017-5.405.035.132-.044-.456-.08 1.105-.11.906-.018 2.027.021 2.856-.031l-2.478-.045-3.485.062 1.013.093-3.985.032c-.019-.063.427-.122-1.017-.172l1.987-.031-7.983-.046 5.996.109-.982.078c-2.719.01-1.104-.055-3.003-.062l-.028.063h-3.955l1.529.063c3.333-.048 4.618-.019 7.004.06l4.44-.031c.351.052.661.104 1.035.156-1.061.009-1.58-.05-2.741-.06-.537-.005-2.417.006-3.247-.002.132-.02.185-.057-.506-.061-.893-.005-2.359-.026-2.906-.024-1.634.006-1.981.038-3.598.024-.346-.099-3.298-.103-5.502-.155-.278.027.242.081 1.053.092 1.143.016 1.375-.013 2.573.02 1.202.032 2.158.121 3.869.152-2.29.028-4.635.053-6.943.08-.409-.093-2.624-.126-5.38-.095-2.031-.04-6.445-.034-7.501-.107-.158-.01.77-.01.61-.034-.057-.008-.659-.088-1.739-.073-1.002.056-1.976.115-2.973.172.829.028 1.599-.04 1.999.001.219.023-.501.05.104.078-1.216-.003-2.031 0-3.091 0 .842.03 1.67.061 2.508.093h.498c.059-.03-.128-.065.091-.093.233.011 2.777.042 2.713.077-.024.012-.745.012-.506.033.4.035 2.792.08.146.106-.978.009-2.256-.027-2.417-.06.637-.012 1.319-.022 1.975-.033-4.845.006-7.313-.083-10.495-.185-1.02.026-1.418.058-1.978.094-.765.05-.392.073-2.481.063.009-.034-.516-.105.513-.122 1.429-.025 2.728-.078 3.839-.089s.875.035 2.008.02c.915-.013 1.367-.037 2.579-.03l-.898-.046 1.413-.048 3.446-.016c-.975-.029-3.286-.023-4.325-.012-1.033.01-1.649.07-2.627.06-.651-.041.813-.075.741-.108-.104-.046-1.949-.044-1.608-.1l-1.968.1.824.109-3-.062 2.008.093c-2.386-.008-4.649.03-6.94.002l-.989.08-5.014.078 2.936-.112c.269-.08.073-.063-1.971-.078-.059 0-.042-.026-.495-.026-.455 0-.424.025-.488.026-.679.01-1.331 0-2.005.003l1.944.109c-1.069.046-.683.084-2.841.081q-.061.029-.128.058l-3.919.066-2.514-.156-2.475.141 2.005.078h-1.999c-.441-.046-.803-.08-.016-.125l-1.98.095c-1.411.003-2.186.009-1.962-.044l-3.034-.018 2.976-.032c.305-.1 1.812-.159-.962-.234l1.923-.11 2.502.093 1.981-.094c1.407.042 1.213.102 3.494.094l-.473.124h2.49l-.998-.139 3.956-.128-4.966.08c.073-.037.158-.117-1.608-.12-.674-.001-1.417.031-2.377-.005-.041.032.001.062-.012.094h-2.967a.2.2 0 0 1-.018-.044l-2.008.014 1.48-.125 2.008.093.488-.094 3.006.03c-.501-.044.591-.07.714-.109.082-.025-.766-.034-.781-.063-.018-.043.05-.095.009-.14l-4.989-.03c-.173-.056.07-.09 1.513-.126l2.878.03 2.573-.062c.332.062.697.125 1.016.187 2.473-.025 1.886-.097 3.143-.156.228-.01 2.155 0 2.289-.033.578.021 1.017.041 1.544.062l-2.981.064 3.497.03 1.502-.094 7.952-.033-1.989.032 1.016.124 2.46-.062c1.564.018.701.06 1.724.09s3.629.027 4.773.065l3.024-.002-1.999-.062.983-.125c-.906-.004-1.867.044-2.646.06s-2.549.057-3.323.02c3.256-.122 6.24-.142 10.461-.05q-.008-.046-.015-.094l2.53.14-4.984.127c1.234.022.502.1 2.542.074 1.048-.013 2.765-.114 3.821-.116 2.227-.004 3.593.019 5.615.023-1.553-.05-3.052-.103-4.586-.155l.555-.061c-5.665-.042-1.375-.172.97-.158.829.052 1.694.104 2.5.156 1.944-.043 1.14-.058.616-.11-.847-.084 2.63-.02 3.842-.016.037.031.029.062.043.094l3.986-.033q-1.003-.03-2.005-.062c4.03.007 6.813-.06 6.955-.189l-2.478.126-1.508-.155 1.978-.064-2.988.05-1.849.091.872.079-2.96.031-.055-.061-6.949.032c0-.031-.01-.063-.015-.094l1.987.031 1.498-.094.537.062h3.965c-1.139-.142-3.959-.127-7.492-.065l-1.999-.057-3.485.062.518-.063-3.524-.03 1.007.124-1.914.003q-.047.03-.101.059c-2.176-.005-3.215.03-4.94.065l.979-.125c1.908.006 2.606.04 3.986-.017l-1.569-.046.553-.094-2.985.063-1.019-.125-2.979.001c-.05.05 2.695.016 1.941.075-.756.06-1.603.03-2.878.02-.041.02-.046.04-.073.06l-2.966.002c1.389.068 2.841.09.519.157-1.198-.036-1.963-.057-2.536-.112-.137-.012-.81-.073-.742-.089.209-.047 1.179-.064.739-.112l-1.023.062c-1.297-.003-2.231.032-3.424.035-.892.002-1.231-.024-2.032-.024s-.893.032-1.92.02c-1.257-.015-1.782-.071-3.552-.058l1.993.138-.98.08h-2.982l.519.126-3.497-.077c.692-.034 1.465-.054 1.761-.097.419-.061.232-.142-.806-.2l1.987-.002v-.093l-3.995-.03 1.025.187c-1.912-.037-2.327.003-3.985.032l-.028-.062-2.472.032c.151-.021.369-.042.474-.063-1.39.014-3.303-.034-4.337-.028-2.07.012-1.219.092-1.651.117-.433.024-.839.001-1.34.009-3.525.056-6.854.116-10.074.188l-1.525-.126c-.774.036-2.122.002-2.887.04s-.39.127-2.576.149c.182-.04.326-.083.494-.124l-3.479.094-4.999-.06c.155.02.367.042.486.061-1.54.017-2.535-.046-3.446-.056-2.003-.023-3.415.036-4.822.025-1.867-.016-1.599-.073-3.707-.058.041.03.015.062.033.093l-4.993-.03v-.031h-1.986q-.015-.078-.037-.156l-.986.063-2.996-.046 1.971-.063c-.015-.036-1.518-.002-1.926-.018-.851-.032.841-.083.418-.122-1.643.03-3.319.063-4.977.094l-1.486.001-.031-.093-3.976-.03 2.008.046c-.109.056-.696.1-.992.158-.141.027-.002.067-1.504.044-.596-.009-1.156-.054-1.975-.054-1.298.001-2.188.01-3.454-.007q-.047-.03-.086-.06l-3-.014-.976-.08-2.964.033a1 1 0 0 0-.045-.063c-2.423-.006-3.753.015-3.977.095l-7.953.034c.319-.084.643-.167.962-.25l-2.964.032a1 1 0 0 1-.009.093c-1.68.006-2.366-.026-3.5-.06q-1.74.04-3.479.078l2.994.015.03.093 4.413.032 2.579.154-2.491.032-.518-.125-3.955.002-.028.062h-1.993q-.018-.03-.036-.062l-3.464.033-1.334-.141.833-.077 1.96-.017c-2.027-.077-4.618-.079-7.486-.108-2.227.061-.467.11-.485.188l-2.405-.03-2.075.062c-1.166-.03-2.338-.06-3.504-.092-1.162.156-5.442.103-9.39.134-1.594.012-2.046.094-4.041.089-.5-.04-1.01-.083-1.51-.124 2.099.02 3.844.004 5.966-.002l.04-.093 1.959-.002c.682-.063-2.272-.126-4.007-.123.304.076-2.127.116-.971.188l-4.004-.093-2.944.314-1.49-.157-6.064-.121c0-.032.019-.063.01-.095-1.307.043-2.929.075-2.405.141.46.059 2.799.03 3.766.05.955.022.282.065 1.532.085h-.01l.019.001-1.84.067-3.046-.124-3.455.032-1.013-.125 1.993.015c0-.026-.008-.051-.012-.078-2.236-.02-3.758-.02-5.985.002l2.021.187-4.001-.092.027.187-2.048-.17.028-.047c2.915.001 2.164-.049.452-.094l-4.453.032 1.004.078-2.978.08c-2.477-.05-2.199-.148-4.999-.186-.333.055 2.934.107 1.904.152-.601.026-2.1-.04-2.875-.01.97.014.511.07 1.59.075 1.853.009 2.654-.014 2.399.063-2.044.009-2.583-.048-4.004-.076-1.019-.02-1.889.024-2.982.016l1.99-.032-1.028-.187-6.964.034c-.408.04.762.048.866.082.178.058-1.353.078.162.136l-4.007-.03.842-.047-.842-.045 1.978-.003a1 1 0 0 0-.006-.093h-2.991c.004.042.014.084.018.126l-5.99-.03.534.062c-1.266.133-.069.198 4.489.187l-2.008-.093 2.487-.032c1.389.035 1.662.07 1.526.124h2.981a.4.4 0 0 0 .034.061l3.97.03-5.969.034.003.094c-1.861.007-2.067-.002-2.072-.06l-1.935-.002 1.001-.062-4.987.017c1.348.053 4.125.063 4.035.139 3.051.01 4.507-.027 6.46-.096h.965c1.47.042 2.354.093 4.516.092-.304-.032-.73-.06-.958-.094 2.14.007 5.567-.105 7.184-.091 3.283.029.127.15.803.213 3.419.029 3.311-.088 5.423-.12 1.753-.027 3.445 0 4.962-.006 1.092-.004 1.321-.03 2.127-.03 3.829.005 6.467.118 10.388.117q-1.509-.06-3.012-.123l4.95.03c.027.02.057.04.079.06h4.953a1 1 0 0 0-.009-.094l1.007.063c1.758-.035 2.751-.074 4.978-.065l-3.006-.093 3.955.032q.056.03.113.058l4.44.095c.173-.02.323-.042.51-.062 1.079-.012 1.781.02 2.569.026 1.266.009 1.622-.036 2.811-.026.892.008 1.398.037 2.536.03.032.02.046.04.082.06 1.084.017 1.612-.027 2.436-.024 2.022.007 3.066.068 5.297.056-.255.02-.514.04-.75.06.965-.005 2.559.02 2.951-.021.391-.042.213-.048 1.947-.045.018-.02.056-.04.088-.06 1.945-.006 3.635.004 5.402.03 1.124.017.458.062.577.092l-4.99.002c-.099.106 3.182.144 3.027.25l-2.99-.015c.35.026.645.051 1.031.078.811-.035 2.977-.044 3.787-.066.808-.02-.096-.05.244-.074.187-.013.73-.023.812-.038.177-.035-.984-.048-.802-.087.082-.018.848-.037.903-.066.073-.04-.102-.097-.052-.14 1.389-.008 2.186.031 3.497.03 1.312 0 2.087-.04 3.485-.032l-1.971.079 1.993.077c.023-.03-.445-.076.488-.092.551-.01 1.508-.029 1.923-.027 1.612.006 2.404.04 4.062.024l.988-.063c.492.03 1.034.061 1.49.093-1.157-.012-4.199.052-2.805.09 1.052.03 2.995-.057 4.324-.001l4.483-.09c.363.026-.634.088-1.043.104-1.389.054-3.121.04-2.912.115l4.984-.033q.012.047.024.094h2.991c-.082.02-.515.046-1.071.062-.088.002-.952 0-.919.015.041.018.861.013.916.016.391.02-.047.042.094.063h.492c.14-.022.365-.04.448-.063h-.985V2.04l.988.03c2.81-.051-.209-.126-.647-.165-.44-.04.734-.04.739-.067.009-.044-1.811-.106-.94-.14.651-.024 2.748.012 2.335.064-.415.051.544.129 2.502.15.36-.051-2.816-.1-.943-.137 1.494-.03 3.248.026 4.91.012.064-.061.966-.096 2.997-.094-1.603.096-.549.197 3.031.218l-.995.094 6.964.061 1.034.062.983-.094-6.973-.03-1.041-.25 1.984-.031-3.98-.03c2.655-.033 4.578-.03 6.909.011 2.332.042 1.349.015 3.653.016 1.234 0 2.856.046 4.377.03.172.093-.812.169-1.941.252l2.487.03c1.192-.03.163-.062.705-.112.1-.01 1.575-.087 2.286-.108a247 247 0 0 1 6.433-.064c.036.021.03.042.058.063 1.771-.038 3.479-.026 5.468-.032 1.267-.004 1.624-.037 3.049-.033 2.382.006 3.994.057 6.403-.002-.638.032-1.316.063-1.972.095 1.762-.008 3.007.002 4.532.028.337.006.537.008.891.01.178-.024.369-.047.556-.071l6.979-.033c-.597.069-2.588.154 1.019.156l-1.016-.125 4.947-.033 1.025-.062c-.159.031-.366.063-.494.094.537.034 1.812.012 2.35.035 1.139.047.585.096 3.186.09-1.111.038-.187.04-.26.077-.072.037-2.78.106-3.713.063.61-.026 1.335-.052 1.95-.079-1.075.006-3.061.014-3.885.032.176-.002 1.055-.066 1.712-.075-.413.002-.882.008-1.306.01l-1.008-.026c-1.425.035-2.459.122.602.09-.824.019-.597.058-1.612.063-2.24.01-3.317-.043-5.435.003.273-.027-.968-.106-1.938-.092-.969.016-1.225.045-2.072.062l2.521.124c.829-.02 1.66-.042 2.484-.063l.513.125 1.986-.063 1.511.047c-2.106.091 2.291.276-1.605.321-.437.005-1.786-.035-2.301.024.264.034.693.072 1.016.107l1.95.002q-.743.046-1.486.093l-4.526-.28-.986.094c-2.304.002-3.844-.04-5.984.002l-.028-.157c-1.083.008-1.575-.015-2.49-.023-.382-.004-.655.02-.955.018-1.68-.015-2.861-.049-4.04-.086l-.474.156-3.002-.062-1.947.314-1.041-.062c-2.085.042-3.366-.037-5.447 0-.782-.028.922-.064 1.419-.078.769-.021 1.338.004 1.971-.022.632-.026.669-.087 2.048-.105-.629-.032-1.249-.061-1.877-.092l.861-.079c-1.489.03-2.386.005-3.989.001.182.059-.11.103-1.978.126-.624-.089-2.358-.156-2.035-.249-1.061.054-2.413.138-3.406.185-.992.047-1.616.058-2.536.098h1.987c.182.085-.707.165.049.249-2-.027-1.536-.104-4.004-.093l1.016.062-3.989.064c-.105-.064-.482-.1 1.981-.095l-1.01-.093 2.49-.03 2.496.06c-.369-.085-2.45-.143-1.922-.233.123-.02 2.309-.054 1.867-.08-3.762-.005-4.818.084-4.95.19h-2.987c.164-.02.322-.042.491-.062.952.036 1.958.039 1.471-.018-.178-.02-.801-.072-1.056-.087-.852-.049-1.838-.075-3.436-.083l1.477.032c.76.125 2.24.181-2.942.188.005.031.014.062.018.093q1.491-.03 2.982-.063c.437.12-2.51.107-4.514.194-.275.012.077.096-.439.118-1.394-.003-2.397-.078-3.467-.086-2.527-.02-4.109.036-6.509.028-.214-.09 1.878-.062 3.982-.063.337-.073.635-.147.995-.219 1.07 0 3.76.007 3.769-.052.002-.031-1.33-.065.198-.105h-4.016l-.479.125-4.495-.06c.669.04 1.345.082 2.014.124l-2.982.001-1.986.125c.865-.116 2.677-.193-.019-.297l3.449-.11c1.831.043 5.455.117 5.478-.002-2.013.04-3.453-.033-5.438-.03-3.343.007-2.132-.007-5.484-.026-.936-.005-5.33.054-6.452-.033-.683.022-1.026.042-1.578.064l4.978.03.043.093 1.483-.027 1.507.089c-1.844.008-3.794.02-5.615.028l-5.331.022c1.079.049 2.874.05 4.44.046 1.316-.003 3.487-.1 4.37-.059 1.275.061-3.715.139-1.788.213-1.048.002-2.01 0-3.022.002.319-.021.689-.042.971-.063-1.849-.002-5.246-.016-6.366-.059-1.279-.049.045-.054-.815-.114-.733-.05-3.134-.142-4.309-.198.137.04.337.083.501.124l-1.99.032c1.011-.01 1.964-.022 3.012-.032.023.056 2.252.127-.781.154-.827.007-4.664-.053-6.116-.027-.164-.022-.068-.04-.131-.061h-4.956c-.3-.026 1.5-.053 1.764-.08.102-.01-.688-.016-.538-.03.456-.043 2.069-.053 1.725-.11l-2.964.158-3.002-.062.985.107-.958.08-2.972-.03q-.027.031-.052.062c-1.544-.002-3.21.04-4.453.003l.501.076c-2.177.063-5.356.155-4.978-.013l-2.484.064.485-.125-3.003-.03c-.068.043.005.084.528.124.734.057 2.429.092 2.503.155-2.655.005-3.541-.09-5.536-.118-1.393-.02-2.244.01-3.5-.02-1.043-.025-1.235-.082-2.46-.108-1.853.007-2.407.039-2.478.094h-.031.003c-.655 0-1.306.002-1.962.001-.014-.03-.023-.062-.037-.093l-3.976-.03c-.205-.06.11-.067 1.978-.064l-1.017-.155-3.985.001 1.977-.125c-1.33.02-2.646.043-3.985.063.095-.061.4-.153-1.49-.183-1.889-.03-1.262.028-1.553.058-.974.002-1.977.002-2.96.003-.299.073 1.185.106 2.136.167l-.095.114-2.044-.093h-1.92c-.018-.032-.03-.063-.049-.094l-4.946.066-1.499.187-.531-.125c-.674-.004-1.31.008-1.993-.002-.061 0-.034-.026-.494-.025-.463 0-.406.024-.491.026-.506.01-.868-.005-1.383.006-1.621.034-2.435.071-4.593.06.496-.03.819-.036 1.984-.031-.342-.052-.678-.105-1.019-.156l2.996.03c-.851-.043-.44-.063-.021-.108-1.079-.045-2.223-.051-3.949-.049-.027-.02-.051-.04-.082-.06h-2.961c.01.032.001.063.019.094 2.928-.06 5.336.017 2.441.06-1.188.017-2.525-.011-3.891.007-1.179.017-1.848.069-3.509.06.323.053.673.104 1.01.156l2.991-.001c-.001-.021-.014-.042-.01-.063q.998.001 1.996 0l-1.971.08c.646.03 1.297.06 1.944.092l-2.417.11c-1.512-.066-3.373-.048-5.518-.076l-.882-.032.788-.031c-1.029-.046-2.183-.051-3.904-.046.105-.094.699-.141 3.559-.189.615-.01 2.786-.018 1.88-.062l-3.827.03q-.82-.015-1.633-.028c.319.036-.024.149-2.005.088-.2-.006-.333-.084-1.483-.086-.842.018-1.659.042-2.487.063l-1.227-.038c-.997.047-1.087.074.238.116l-2.31-.011-4.657.06 4.986-.001-1.974.126 4.974-.096-1.971.142-2.997-.015 4.007.124-5.994-.06-3.534-.219-3.473.033-1.022-.157 4.984-.001c-.069.062-.446.102 2.014.093-1.617-.091.426-.144 1.956-.22l-4.977.064-.013-.093c2.044-.01 3.052-.041 4.987-.002-.023-.022.027-.041-.037-.064-.797.018-2.019-.025-2.383-.024-1.749.007-3.52.092-4.904.087-3.292-.011-.358-.155-.73-.174a15 15 0 0 0-2.404.052c-.55.063-.101.103-2.512.096l4.001.061-6.98.003c1.098.067 2.55.098 4.99.092-.146.08.401.141 2.036.202l-2.973-.015c.091-.053-.041-.09-1.535-.12l-1.016.027-.501-.062q-1.98.057-3.955.11c2.66.057 1.132-.065 3.482-.044 1.492.014 1.667.079 1.517.12q-.997.018-1.993.034c3.243.032 5.753.031 8.972-.004.028.051-1.682.026-2.511.065-.747.035-.484.098-1.914.122-3.06.026-.42-.076-.662-.084-1.808-.06-4.317-.083-6.375-.13-.014.032.009.062.009.094l-2.008-.057c-1.083.05-1.999 0-2.914.004-2 .009-1.464.105-3.559.118-.15-.04-.339-.083-.503-.124-1.148.02.376.065-1.489.046-.957-.009-1.928-.02-2.985-.014-.132-.091.728-.179-1.544-.249l-4.477.08 2.987-.001-.778.031c1.658.053 2.015.099 1.819.172l-3.964.002c-.018.02-.008.041-.04.06-1.389.019-2.441-.019-3.534-.025-1.489-.008-1.965.037-3.427.028-.091-.062-.472-.098 1.932-.095l1.022-.186c-2.628 0-6.882.07-6.973.16l-1.498-.03c-.661.03-1.299.062-1.978.093-1.37-.038-1.821-.058.113-.092 2.213-.039 3.923-.028 3.336-.128-4.154-.001-4.328.149-8.295.154-3.083.004-3.38.042-6.372.066a449 449 0 0 1-6.674 0c-1.977-.02-2.963-.082-5.527-.054l-2.039-.155 1.975-.002v-.124l2.487.057c1.826-.04 3.462.008 5.502.002-.369.062-2.395.032-3.497.004l-2.472.092 7.446.028 2.503-.157-4.459.002c-.514-.03-1.024-.062-1.538-.093l5.994.06-.025-.156c-2.417 0-4.593.025-6.979.003l-1.471.156c-3.466-.034-2.263-.083-.537-.155a149 149 0 0 0-4.428.06c-.674.021-.205.054-.574.062-2.027.045-4.56.017-6.427.07l1.471-.158 4.984-.017c-.192-.082-3.095-.054-4.502-.014-.168-.02-.327-.042-.5-.062-.806 0-1.542-.01-1.975.017-.186.011-.798.052-.775.059.328.072.796.077-1.181.131l.989.075q-1.494.016-2.988.033l.98-.095-3.98.049 1.99-.016-.964.187-2.997-.046 1.983-.031-3.976-.124.958-.078 1.999.03c0-.03-.011-.062-.015-.093a339 339 0 0 0-7.959.003v.094l-2.466-.03-1.52.047 1.999.03-4.477.08-.522-.062-2.926.034c-.669.052-1.353.104-2.008.156-2.909-.031-.46-.065-1.129-.124-.092-.008-2.173-.009-1.859.02-.059.014 0 .028-.018.043h-1.993l-.043-.061-5.951.001c.806.03 1.653.06 2.436.09l-.031.001h.003c-1.082.009-2.874.028-3.769.034-.901.006-.894-.002-1.626.001.364-.026.664-.051 1.001-.077-1.339-.046-3.305-.037-3.009-.11-1.057.008-2.137.044-2.979.064-.168-.01-.333-.021-.507-.03-.441-.003-.401.027-.479.029-2.522.044-4.794-.007-7.467.005l-1.029-.063.519.125-2.994.001c.255-.095-.505-.167-2.035-.249q1.993-.016 3.985-.033l-1.01-.093-4.01-.03c-.168.037-.919.073-.955.11s.866.08 1.508.108c1.115.051 1.865.044.003.095l-4.502-.123q-.012.046-.024.093l-1.917.002c0 .03-.031.063-.009.092-1.89 0-1.295-.062-2.133-.087s-2.114.003-3.339-.008c-.618-.005-.951-.032-2.16-.026-1.854.01-5.175.114-7.324.096-.506-.073 2.031-.143.97-.203l1.953-.047c2.021.005.467.077-.076.104-.542.026-1.991.055-1.886.084 3.338-.004 6.197-.042 5.96-.159l3.995.03-1.026-.156c-1.392 0-2.408.04-3.491.002-.783.023 1.516.089-1.062.06-.337-.004-2.281-.061-2.35-.072-.467-.078 3.215-.057 2.878-.145-1.562-.003-.506.043-1.572.063-1.461.027-2.668.059-4.367.066v.124l-1.996-.015.971-.11-1.914-.001c-.054-.02-.039-.04-.134-.06-2.131.002-5.698-.022-6.769.05-1.07.07 3.481.038 4.447.072l2.377.003 1.032.077-.977.11-2.02-.093-1.981.017-.519-.11-1.959.094c-1.47-.02-.828-.06-1.684-.089-.857-.028-3.624-.038-4.804-.033-.068.021-.06.04-.101.06L275.464 2c-.487.062-.493.133-3.024.125l-.516-.093-2.5-.03 3.968-.096c-1.69.017-3.158.064-4.566.09-1.844.034-3.61.023-3.405.1-1.571.017-4.13-.044-5.506-.055-1.375-.01-2.193.003-3.464-.003 1.512-.045 2.844-.068 4.947-.066.028-.02.062-.04.089-.059 3.905-.026 3.282-.131-.583-.125-.834.001-.726.063-1.44.078l-3.016.016c-.255.055-1.098.1-.988.156-1.111-.004-2-.014-2.997-.03l-.012.093c-2.008.005-2.928.033-2.961.096l-3.976-.03.809-.078-2.896-.263c-1.817-.007-2.915-.047-4.462-.001l-1.016-.123c-1.562.047-1.685.05-.434.11 1.025.049 2.332.123 3.949.154.975.02 1.322-.03 2.024 0-.337.025-.657.052-.989.078l-2.542-.06c-2.35-.007-3.184.06-5.429.063 0-.014.009-.028.009-.043l-3.018-.018 1.016.093-2.997.002c.023.041-.006.084.04.124-1.767.01-.393-.075-1.609-.059-2.19.03-5.076.022-6.866.092-1.48-.056-2.737-.05-4.923-.063-1.707-.01-4.395-.027-5.984-.027-5.051 0-9.111-.015-14.093-.024-3.161-.005-7.524.033-9.332-.074-1.129-.067 2.104-.023 1.837-.079-3.12-.025-4.451-.108-7.971-.09l3.994.03c-.318.04-.654.083-.964.125-1.402.002-2.123-.02-3.516-.031-.869-.007-1.873.01-2.938-.003-1.235-.014-1.808-.07-3.525-.056-.018.02-.009.041-.019.062l-3.494-.03c-.47.018-1.697.036-.915.062 1.826.061 4.504-.056 4.431.062l-11.429.004c-1.772-.042-1.649-.091-1.553-.155-.346.02-.639.043-1.026.061-2.755.046-5.425-.064-7.306-.078-1.884-.015-1.849.048-3.656.02.378-.039.661-.083.998-.124l-2.884.08c.301.025.623.051.91.077-.688.003-1.759 0-2.359-.002-2.377-.005-3.111-.023-5.329-.054-.652-.01-2.519-.012-3.265-.033.178.077-.833.123-2.988.158-.004-.042-.016-.084-.021-.125l-5.972.064 1.974-.063-1.507-.124q.26.046.512.094l-7.974.003c0 .03.011.062.015.094h-2.993c.919-.046.12-.074-.022-.124l2.506.027 2.462-.076-1.998-.078 3.994.03-1.983-.031a1 1 0 0 1-.037-.093c-2.75.002-4.995.073-7.477.003l.534.187c-2.464.011-3.33-.027-5.011-.076-1.197-.035-2.113-.061-2.942.003-.901.07 1.229.008 1.963.028-1.252.033-.693.07-1.508.112-.902.046-1.963.044.055.093l5.45-.128c.101.063.502.099-1.934.096l-.028.093-4.95.001c0-.02-.059-.041-.027-.061-2.168-.013-1.704.042-3.745.06-1.056.008-3.118.038-4.852.026s-3.923-.091-6.35-.049c.605-.034 1.31-.064 1.952-.096l-3.555.063-3.415-.029 1.01.062-3.988.002.973-.126-1.514.03c0-.02.01-.04.01-.06h-4.459l-.08-.06-2.459-.03c-2.346.076-5.435.065-8.46.095l1.55.094 2.451-.032q.013.046.019.094l-2.487.03-2-.058-5.48.062q.243-.03.488-.063h-1.492l-.504.064c-4.58.01-8.856-.053-12.936.032-3.188-.084-6.195-.044-10.22-.054-.984-.002-2.082.031-3.193-.002-.064.02-.041.041-.073.062q-2.242-.029-4.483-.059c-2.85.096-3.997.052-7.08.006-1.799-.027-2.997-.05-5.005-.063-.92-.006-.006.098-2.347.058-.059-.04-.023-.083-.046-.124-1.561.03-2.322.023-2.997-.031 2.017.003 3.242.013 2.979-.063l1.95-.002c.287-.059 1.293-.081-.482-.124l-8.463.065c-.443-.076 3.321-.146 3.95-.22-2.564-.004-3.193-.05-3.025-.124a55 55 0 0 0-2.447.031c-1.434.047-1.147.101-3.51.095.191-.031.335-.06.54-.093-1.309-.038.047-.076.202-.107.153-.032-1.06-.03-1.307-.048-.724-.052-.428-.07-2.45-.065L0 1.1l1.501.03-.51-.093c2.433-.024 4.976-.035 7.462-.034.747 0 1.536.021 1.95.023 3.647.018 4.558-.003 8.356-.022.752-.003 3.057.042 4.706.025.564-.007.92-.05 2.225-.058 1.562-.008 4.748.03 6.72.028C34.017.997 35.747.97 37.363.965c.013.02.013.042.018.062l4.965-.09 6.467.025c.018.021.041.041.055.062 1.77-.027 2.71.001 4.48 0 1.771-.002 3.034-.05 4.956-.034q1.015.046 2.023.093c-.16-.041-.379-.084-.497-.124 1.366-.022 3.307.021 4.364.02C67.418.977 69.84.925 72.76.97c1.161.018 2.568.096 3.433.103 3.557.028 3.844-.057 6.034-.087 1.27-.017 1.194.02 1.986.018C88.363.996 92.13.927 96.17.917c4.039-.011 8.147.08 11.899.086 2.992.006 3.894-.057 6.586-.001-.019-.022.007-.042.03-.062 1.371-.001 3.153-.005 4.428-.004.883.001 1.412.025 1.99.025 1.735-.001 3.265-.067 4.886-.053 1.954.016 2.22.077 4.602.056-.009.016.017.03.021.044l1.526-.012.989.06 1.48-.094-2.997-.03 3.949-.018 2.988.017.085.06h2.93c-.168-.077.984-.067 3.015-.064l2.002.061c-.341-.03-.676-.062-1.013-.093l2.981-.064 3.513.124-.51-.093c1.11-.012 1.579.02 2.448.021.87.002 1.1-.024 2.038-.025h4.462c.018.02.025.041.034.062h.994c0-.02.029-.041.016-.062a536 536 0 0 1 7.373-.032c7.783.018 15.348-.039 22.922.05 2.764-.048 5.414-.07 8.566-.065l-2.014-.093 3.976.03 1.532.093 1.462-.188c2.987.047.992.105 1.037.187l7.435-.004c.918 0 1.483.026 1.965.024 2.336-.01 3.881-.08 6.067-.03l2.948-.09c.996.023 1.465.054 2.548.077 1.279.027 2.29.008 2.008.075l3.964.031a1 1 0 0 1 .022-.093l1.919-.002c.009-.031.013-.062.022-.093l2.99.03c.223-.073 2.916-.152 2.994-.033l-1.996.017 1.978.015q.021.046.036.093c1.99.021 4.086-.072 3.968-.126l2.499.06c2.837-.048 3.807-.084 3.461-.188l2.951.032q.056.03.119.058l3.442.064 1.48-.094-1.919-.002-1.624-.09-6.448.002c.915.09.956.124-1.462.188l-.534-.187-3.47.126.498-.062c-2.697-.003-4.478-.047-6.992.002.21-.095-.06-.156-2.533-.217l-3.479.063 2.997.03c.009.073.032.146.036.22-2.385-.018-5.022-.016-7.357-.032-.829-.006-1.012-.035-1.581-.044-1.648-.025-2.249-.01-2.072-.077l-2.948.033c.1.069.272.125-1.987.157l-.052-.093-1.883-.003q-.039-.03-.085-.06c-.637 0-1.272 0-1.914-.002l-.119-.06-2.932.002q-.03.03-.064.06l-3.443.032c-1.762-.04-2.081-.127-4.498-.121l.467-.125q-1.742.016-3.482.033c-.541.102 3.28.157 3.036.248-2.368-.04-4.45.009-6.982.003l1.986-.048-2.6-.076-2.395.016c1.735-.071 2.854-.135.461-.204l-.47.157-3.986.001-.98.126c-3.159-.055-1.379-.072-.149-.14-2.691-.148 1.251-.064 2.618-.018.706.001.751-.032.464-.046-1.357-.065-3.82-.047-5.969-.045l1.016.093-2.985.048V.58l2.009.078-5.985.002c-.672-.063 2.196-.128 3.967-.127-.091-.08-1.634-.1-4.007-.092q.006.047.019.094c-2.696-.023-5.239.006-7.972.003l-3.46.22c-1.171-.03-2.342-.062-3.504-.093.915-.008 2.454.044 2.97.013.514-.03.963-.071 1.004-.108-2.837.012-4.583.063-6.464.127-1.138-.041-2.474-.064-3.393-.115-.596-.033-.284-.055-2.118-.04q.511.046 1.016.094l-3.516.032.543.062h-2.993q.485-.077.97-.156-1.98.064-3.967.126l.479-.125-.992.025c-.501-.03-1.008-.058-1.513-.087h3.988L145.978.42c-1.307.049-3.596.052-3.537.123l-1.88.004q-.012.046-.025.093l-1.995-.015.97-.141-4.526.155c-1.503 0-3.393.012-4.791 0-.892-.007-1.421-.047-2.045-.05-1.812-.01-1.53-.015-3.338-.036-1.476-.017-6.372-.016-7.215-.079.606-.042 1.29-.083 1.941-.125-1.125-.03-1.764-.067-3.039-.094-1.275-.028-2.316-.009-1.993-.077-.674-.002-1.313 0-1.978 0-.018-.015-.036-.03.037-.045 1.653-.062 2.715-.089 5.512-.08 1.893.005 2.44.032 3.97-.033m512.979 2.63-.04.063 2.491-.016-1.007-.078h3.976q.513.06 1.025.124h-3.985q.005.048.003.095l-4.462.001c-.178-.02-.35-.042-.528-.063l-.97.045-3.006.018 2.926-.14-1.962-.079c2.031 0 2.951-.03 2.979-.094zm6.458.171-.498.016-1.501-.047.497-.015zm6.012-.001c-.005-.02.938-.02.943 0 .004.019-.941.02-.943 0m34.902-.008c-.003-.02.941-.02.943 0 .005.02-.942.02-.943 0m8.951.013h-1.996v-.03l1.996-.001zm17.975-.02c-.004-.02.941-.02.943 0 .005.02-.943.02-.943 0m-89.755-.01c0-.019.942-.019.943 0 .004.02-.943.02-.943 0m42.883-.01c-.004-.02.941-.02.943 0 .005.02-.942.02-.943 0m-88.788.008h-1.992c.181-.04-.583-.059-1.011-.093l2.991-.001c.005.031.012.063.012.094m26.914-.133.067.061 1.935.001a.3.3 0 0 1 .006.063h-1.996l-1.016-.125h1.004m139.633.108c1.48-.05 3.198-.077 2.994.015l-1.499-.028zm-93.759-.09c.196.032-.646.103-1.981.095-.004-.031-.012-.062-.012-.094zm-86.749.088-1.993.001c-.005-.01-.003-.02-.003-.031h1.996zm142.62-.064c.875-.032 3.354.038 2.958.052-.874.032-3.351-.037-2.958-.052M577.637 2.7q.007.03.009.063h-1.996l1.489-.063zm3.006.062h-.998c-.005-.031-.015-.063-.015-.094h.997c.005.031.006.063.016.094m157.574-.007h-1.996c-.004-.03-.012-.062-.012-.093h1.993c.005.03.015.062.015.093m9.909-.102c.592-.018-.355-.086 2.036-.055-.052.076-3.376.169-5.966.156 0-.041-.013-.084-.013-.124 1.321 0 2.573.064 3.943.023m-131.589.099c-1.092.007-1.967-.006-2.978-.015-1.015-.008-2.071-.007-2.017-.046l3.976-.002 1.004-.062c.005.041.015.083.015.125m-68.826-.136c-.719.043-1.181.077-.986.126h-2.987c-.005-.041-.014-.083-.019-.125zm15.97.12c-.669-.02-1.333-.04-2.002-.062h1.993q.008.03.009.063m17.978-.021c-.002-.02.94-.02.94 0 .003.02-.94.02-.94 0m124.631-.016c-.104-.106 3.684-.059 5.975-.064l-2.536.094zm-30.933-.118c-.71.042-1.194.076-.98.125h-.994q-.013-.062-.019-.125zm-120.63.11c-.004-.02.939-.02.943 0 .003.02-.94.02-.943 0m12.967-.004c-.004-.02.943-.02.943 0 .004.02-.941.02-.943 0m-64.85.008-4.995-.062 4.983-.032c.005.031.012.063.012.094m262.72-.413c-.927.004-.11.047-1.059.062-.578.008-1.299.027-2.042.029-2.026.003-2.688-.054-4.354.02l1.977.015c.009.062.012.124.021.186l-1.971.017c1.211.045.734.089 2.997.078-.032-.025-1.12-.038-.537-.062 1.42-.057 1.93-.031 2.823-.113.824-.076 5.151-.15 2.145-.232m-246.768.405c-1.111-.013-1.714-.037-2.985-.031l-.027-.125h1.989zm4.989-.002h-.998c-.072-.043-.863-.08-1.01-.123h.028l1.962-.002q.013.063.018.125m172.556-.03c-.005-.02.939-.02.94-.001.005.02-.939.02-.94 0m8.774-.08c1.023.027-1.193.104-1.66.092-1.025-.027 1.194-.105 1.66-.092m52.038.083c.073-.063-1.016-.095-3.006-.093zm-206.445-.01h-1.996a.1.1 0 0 1-.006-.032h1.996q.006.015.006.031m12.988-.02c-.004-.02.943-.02.943 0 .003.019-.94.019-.943 0m8.945.01-3.992.002v-.032h3.992zm-93.741.001c-1.703-.034-2.579-.022-4.364 0l-4.623-.076c2.596-.078 5.061.005 7.971-.049zm5.988-.002h-1.996c-.005-.01-.003-.02-.003-.03l1.996-.001q.005.015.003.031m110.678-.099c-1.989 0-3.069.032-2.979.095 1.99.001 3.07-.032 2.979-.095m15.945-.129c1.248.001 1.544.048 1.999.078.775.05 1.321.084 1.026.14h-.007c-2.562.011-1.662-.023-2.008-.077-.346-.055-1.309-.085-1.01-.141m-151.571.113-3.977.095 1.978-.126zm95.773.075c-.005-.02.943-.02.943 0 .003.02-.941.02-.943 0m142.59.01h-1.996q-.007-.031-.009-.062h1.996q.008.03.009.062m-208.447-.05-1.987.048c-.004-.031-.012-.063-.012-.094h.497zm97.742.046h-.998a.3.3 0 0 1-.009-.062h.998q.008.03.009.062m194.503-.027c.001-.02.942-.02.943 0 .005.02-.942.02-.943 0m-327.145.01-3.006-.093h2.994c.004.03.003.062.012.093m209.403-.018c0-.02-.947-.02-.943 0 0 .02.945.02.943 0m-103.666-.003c-.002-.02.939-.02.943 0 .003.02-.943.02-.943 0m6.983-.003c-.003-.02.938-.02.943 0 .003.02-.943.02-.943 0m11.941.012h-.998q-.008-.03-.009-.062h.998q.008.031.009.062m-81.753-.019c-.002-.02.943-.02.943 0 .003.02-.939.02-.943 0m3.988 0c-.004-.02.943-.02.943 0 .005.019-.942.02-.943 0m114.811-.084c.46-.012 2.698.064 1.684.092-.46.012-2.705-.064-1.684-.092m-86.924.025q.001.031.01.063l1.992-.001a.3.3 0 0 0-.009-.062zm9.955.044c0-.02-.947-.02-.943 0 .003.02.948.02.943 0m176.538-.078c.838-.014 2.147.009 2.994.015-.004.02.009.042.009.063h-1.996zm-359.124.054-.498.016-1.492-.047.497-.015zm197.552-.121 1.007.077-1.489.048-1.508-.078 1.984-.047zm-58.829.114-1.999-.047 1.49-.047h.497c.005.031.012.063.012.094m-122.732-.024c0-.02.943-.02.943 0-.001.02-.942.02-.943 0m98.758-.172c-.997.024-.759.038.015.062 1.48.043 3.228.035 3.018.109l-4.98-.03c-.009-.052-.025-.104-.034-.156zm296.209-.032 2.054.155 5.951.047c-2.677-.109-2.933-.215-8.005-.202m-186.468.199h-1.999v-.03l1.996-.001q.005.015.003.031m-86.786-.159-2.985.001c-.03.023.88.024.782.048-.101.024-1.128.044-.782.077l-4.452.034-2.533-.11c-.209-.06.584-.04 1.987-.047l.503.031 3.464.03 1.031-.063h-.009c.123-.026.937-.037.989-.063h.998zm144.623.112v.03h1.993v-.03zm-118.692-.059q0 .03.009.062c.993.006 3.261-.021 2.985-.063zm13.376-.692c-.701.02-.738.077-1.593.09-.857.012-2.263-.064-1.862.018.401.084 1.415.044 2.872.086.669.019-.354.085 1.101.102l-2.96.05-.9.171c2.117.068 3.602.145 6.912.138-.182.017-1.199.047-.986.063 1.33-.01 2.654-.022 3.983-.033q.001.031.009.063l4.987-.002q.001-.015-.003-.03l-4.993-.03q-.008-.031-.009-.063c-1.293-.006-1.859.02-2.988.032.232-.054-.141-.089-1.517-.124l-2.49.016 4.978-.049c-.679-.04-1.329-.083-2.021-.124 1.711.003.974.071 2.64.091.888.011 2.789.002 3.855 0 1.064 0 1.621.009 1.507-.031-3.197.006-1.527-.107-3.012-.171l2.985-.017-1.035-.092-3.476-.029c-1.302.037-2.531.064-2.472.124l-1.999-.015c.229-.06 2.107-.08 1.975-.142-2.285.01-2.109-.051-3.488-.092m164.639.643c-1.019.029-1.667.05-1.486.094h2.994c.173-.045-.479-.066-1.508-.094M524.725 2.31c0 .032.008.063.013.094h1.995c0-.032-.01-.063-.015-.094zm117.682-.003 2.506.092 2.49-.03-2.506-.093zm27.439.087-.504-.031h.998zm31.408-.07q.002.031.009.063c1.917.005 3.251-.003 3.98-.063zm-225.412-.122c-.027.05.323.11 1.038.156l2.975.015zm-114.163.107 1.505.047v.015l-2.994.001 1.486-.063zm182.993-.005q0 .031.009.062h1.996l-1.508-.062zm131.652.058 2.991-.001v-.016l-1.501-.046zm-343.063-.01h-1.996q-.005-.015-.003-.03l1.996-.001c.005.01.003.02.003.03m169.525-.033c.005.01.003.02.003.031l-3.988.001q-.001-.031-.009-.062zm-161.545.014-1.495.016-.055-.002h.028l1.516-.014zm81.739-.001c0-.02-.943-.02-.94 0 0 .02.944.02.94 0m330.133-.033 1.999.046-.013-.093h-.497zm-128.681.028c-.002-.02-.947-.019-.943 0 .001.02.948.02.943 0m-101.727 0c-.003-.02-.944-.02-.94 0 0 .02.945.02.94 0m7.999-.05q0 .031.009.063h.998q-.002-.031-.009-.063zm91.742-.31c-.711.049-1.331.094-1.987.142.583.025 1.518.07 1.959.093.729.038.165.045.543.08.483-.043.987-.084 1.484-.126l3.973-.002c.485.084-2.184.037-1.886.111.1.025 2.045.017 2.396.045.537-.062.979-.126 1.498-.187 1.725-.017 2.299.044 3.5.057 1.867.02 2.897-.009 4.477-.028-.041.071 1.339.12.019.187h2.993c-1.27-.103-2.1-.202-2.041-.313-2.555.003-3.182.052-2.973.126-2.655-.031-6.086-.146-8.996-.123-.15.032-.34.063-.467.094-1.849-.03-.863-.078-1.691-.122-.391-.02-2.268-.006-2.801-.033m-242.295.35c-.002-.02.939-.02.943-.001.005.02-.943.02-.943 0m-67.834.012h-1.996l1.486-.062h.501c0 .02.009.04.009.062m260.269-.097c-.073.063 1.02.095 3.006.093.073-.062-1.016-.095-3.006-.093m25.913.071c0-.02-.945-.02-.943 0 0 .02.946.02.943 0m-87.72-.046c.869-.032 3.342.037 2.957.052-.869.032-3.346-.037-2.957-.052m-212.403.03c-.004-.02.943-.02.943 0 .002.02-.942.02-.943 0m82.737-.018c-1.266-.005-1.881.02-2.988.032 0-.02-.009-.041-.009-.062l2.994-.001zm-141.602.028h-.998c0-.02-.009-.042-.009-.063h.998c0 .021.009.042.009.063m512.567-.232c-2.498-.008-2.015.03-1.983.094h.998l1.013.125c-.01-.073-.014-.146-.028-.22m-2.987.203c-.003-.02-.944-.02-.94 0 0 .02.944.02.94 0m-419.837-.009c-.432.025-.529.038-.998 0zm287.189.008c0-.02-.947-.02-.943 0 0 .02.945.02.943 0m-101.669 0c-.005-.02.942-.02.943 0s-.943.02-.943 0m275.207-.005c0-.02-.947-.02-.943 0 .001.02.948.02.943 0m-243.329-.053q.001.031.009.063l1.987-.063zm124.643.044c0-.02-.947-.02-.943 0 .003.02.948.02.943 0m3.006-.094-2.997-.047 1.978.032c.018.031.03.062.049.093l2.478.028 4.474-.076-1.993-.03a.1.1 0 0 0 .009.025l-1.993.021-2.014-.125a.4.4 0 0 1 .009.079m13.95.09c0-.02-.948-.02-.943 0 .007.02.947.02.943 0m-205.417.013-1.996.001 1.987-.063c0 .02.009.042.009.063m-80.811-.016c-.002-.02-.947-.02-.943 0 .002.02.948.02.943 0m215.436-.057q.002.03.009.062h1.996q-.001-.031-.009-.063zm-348.013.047c-.003-.02.94-.02.943 0s-.943.02-.943 0m9.945.012-2.99.002c-.005-.01-.003-.021-.003-.032h2.99c.005.01.003.02.003.03m248.276-.282c-3.17-.007-4.051.084-6.961.096-.027-.02-.026-.04-.076-.062-1.917-.01-3.724-.057-4.84.018-.97.065 1.898.035 2.814.047l.137.003c.22.009-.22.026.067.038 1.152.049 2.241.077 1.923.143 3.055.002 5.013-.082 7.968-.034l.97-.188-2.987.033zm-91.72.22c.231-.098-3.86-.08-4.981-.013.946.01.623.073 1.483.074 2.97.002.056-.127 3.498-.06m-76.752.046c-.004-.02.935-.02.94 0 .003.019-.94.02-.94 0m-68.836.012c.001-.021-.012-.042-.012-.063h1.993zm103.739-.027c-.004-.02.943-.02.943 0 .003.02-.938.02-.943 0m-131.168.007-2.496-.03h-.006c0-.02-.009-.042-.009-.062l3.991-.002zm158.042-.033L419 2.223c1.335 0 2.397-.037 3.476-.003 1.662-.033 1.006-.042.669-.08-.524-.058.963-.084.796-.138-.97.063-1.981.125-2.969.188m325.137 0 3.995.03c.004-.02-.027-.041-.009-.062-.482-.001-.954.001-1.435.001l-1.068-.063zm-472.684.013c-.003-.02.939-.02.943 0s-.943.02-.943 0m13.925-.084c.199.031-.644.103-1.977.095a1 1 0 0 1-.018-.094zm-47.83.067c-.004-.02.942-.02.943 0 .005.02-.942.02-.943 0m85.694-.239 2.008.093-3.989.002c0 .031.008.062.012.094l7.001.06c-.199-.037.669-.056.455-.095h.006c-.333-.06-1.714-.12-1.505-.186zm80.807.202 2.997.046q0-.015-.006-.031h.006l-2.499-.03zm-58.905-.43c-3.325.023-3.245.138-6.961.129l2.02.124c-2.149-.022-4.169-.004-6.387.006-.473.002-.625.026-1.267.025-1.871-.002-3.516-.069-3.302.036l3.986-.001.028.156a62 62 0 0 1 2.941-.002l.11-.06 1.88-.004c.023-.03.041-.061.064-.092l1.883-.004c.023-.02.037-.04.064-.06l1.993-.002-.925-.045 1.413-.047 2.5.03c-2.108-.083-2.094-.105-.031-.188zm384.564.38a64 64 0 0 0-1.446 0c-.751.035.663.074 1.419.093.833-.02 1.669-.041 2.484-.063h-.006c-1.175.01-1.676-.015-2.451-.03m22.403.027q.001.031.009.062h1.996a.3.3 0 0 0-.009-.062zm-229.376.058-2.994.001q-.005-.015-.003-.031h2.991q.006.015.006.03m-159.589-.159c.209.087-1.152.147-3.961.158q-.007-.063-.015-.125zm413.932.143c-.004-.02.936-.02.943 0 .004.02-.943.02-.943 0m-460.785-.03c0 .01-.002.02.003.031l2.984-.048-.5-.015zm-77.783 0a70 70 0 0 0-2.485.03l-4.507-.089 6.976-.003c.005.021.016.042.016.063m29.943.003c-.004-.02.94-.02.943 0 .005.02-.943.02-.943 0M764.038 2c-.177.083-.071.15 3.015.156l1.978-.125zm4.984.14c0-.02-.948-.02-.943 0 .002.02.946.02.943 0m-332.087-.017q-.001.015.003.031h1.996c0-.01.002-.021-.003-.031zm-153.57.03h-1.996a.3.3 0 0 1-.009-.062h.497zm262.28-.037q-.001.015.003.031l3.989-.001v-.031zm5.972-.033c0 .02.01.042.01.062h.998a.3.3 0 0 0-.01-.062zm41.886-.044c.391.11 3.112.097 6 .092 0-.031-.011-.063-.016-.094l-3.027-.016zm-176.517.06q0 .015.006.031h1.996q0-.015-.006-.031zm318.143-.031 2.005.062q-.001-.031-.009-.063zm-226.386.06-1.996.001c0-.02-.009-.042-.009-.063h1.996a.3.3 0 0 1 .009.062m-490.643 0c-.005-.02-.015-.042-.015-.062h1.996zm196.365-.478c1.672.073.143.085-.827.143-.492.029.495.054-.265.073-.766.02-2.348.01-2.826.051.646.036 1.36.073 2.029.109l1.459-.03c1.838.041.66.064.519.123l4.962-.097c0-.03-.009-.062-.009-.092l-1.999-.031 2.985-.048-5.002-.077 4.974-.048-2.997-.015c.333-.02.66-.042.992-.063-1.334 0-2.656 0-3.995.002m249.39.432c-.154.026.331.031 1.059.033zm198.456-.093 1.428.03.583.095 1.025-.093 1.96-.001a.2.2 0 0 0-.016-.063zm19.934.105c-.002-.02-.948-.02-.943 0 .001.02.947.02.943 0M579.532 1.98c.004.041.014.083.018.124h1.993l-1.016-.125zm126.636-.284c.05.07 1.513.096.821.175-.462.053-4.191.164-3.754.232 2.459-.066 3.917-.044 6.955-.031.103-.047-1.089-.026-2.027-.047-1.384-.033-.965-.091-.988-.14l2.008.093.955-.17c-1.32-.038-2.677-.073-3.97-.112m-522.535.402-2.99.002a.1.1 0 0 1-.006-.032h2.993c.005.01.003.02.003.03m160.541-.095q.007.046.012.093c1.44.005 2.088-.015 2.985-.048a64 64 0 0 0-2.997-.045m-1.016.078c-.005-.02-.945-.02-.943 0 0 .02.948.02.943 0M193.573 2.08c-.005-.02-.948-.02-.943 0 0 .02.945.02.943 0m563.495-.032 1.501.047.498-.016-1.505-.046zm-556.516-.111c1.203.061-.404.122 2.024.155l.036-.111zm6.961-.066-2.938.048 1.007.14 3.979.03-3.009-.108c-.237-.074 1.511-.035 2.973-.048-.119-.085 1.613-.136 2.966-.204h-.006l-4.99-.045c.005.062.014.124.018.187m332.135.216c-1.187.001-1.656-.053-1.898-.08-.241-.028-.093-.05-.116-.076h2.994c-.328.051-.647.104-.98.156m-65.85-.226c-.287.028.468.134 1.065.147 1.566.034 2.219-.011 1.968.07 2.546.025 4.955-.126 4.95-.19l-1.489.063c-2.163-.03-4.331-.063-6.494-.09m-164.548.203c0-.02-.948-.019-.943 0 .005.02.945.02.943 0m162.576-.048c0 .021.009.042.009.063h.998c0-.021-.009-.042-.009-.063zm88.748-.061q.517.046 1.035.093l3.973.03c.137-.113-1.701-.132-5.008-.123m6.943-.22c.077.028-.504.064-.51.091-.009.033-.473.115-.36.133h.003c.401.06 1.336.062.922.12 1.002-.013 1.991-.022 2.988-.033l-.998-.108 2.96-.096-1.996.002zm-404.843.279c0 .02.009.042.009.062h.998c-.005-.02-.005-.042-.009-.063zm13.974.057h-1.996q-.005-.015-.003-.03l1.993-.001q.006.015.006.031m413.87 0h1.993l-1.505-.063h-.494q0 .031.006.063m131.635-.063q0 .03.009.062h.998q-.001-.03-.009-.063zm14.966-.003c.159-.064-.484-.077-2.57-.062-1.862.014-3.418.06-3.4.125 2.417.006 3.256.006 2.97-.078zm-558.454.05c-.004-.02.937-.02.943 0 .005.019-.941.02-.943 0m77.756-.016c-.159.009-.042.028-.488.027-.446 0-.451-.015-.51-.026q.499-.002.998 0m172.531-.132c-.619.097 3.345.074 4.758.094s1.157.04 2.246.06c-.742-.052-1.37-.103-2.066-.155zm-381.497-.13c-1.94.048-4.166.03-6.47.033 1.762.06 3.001.153 4.977.2.925.023.957-.003 1.563-.013.146.02.321.04.476.06q.997-.023 1.987-.048l-1.053-.186zm322.623.262c0-.02-.946-.019-.943 0-.001.02.947.02.943 0m91.751-.175c-.205.11 2.454.133 5.014.186.136-.109-2.123-.147-5.014-.186m-388.874.17c-.004-.02.943-.02.943 0 .005.02-.94.02-.943 0m501.566-.005c-.005-.02-.947-.02-.943 0 0 .02.944.02.943 0m-168.582-.394c-.087.063-.455.1 2.008.093l-2.472.121-1.468-.026c-.364.095-2.94.117-4.99.174 2.258.074 4.207.035 6.98.013l-1.013-.093c2.007.006 3.104-.017 4.47-.06l2.506.026-1.01-.063 3.982-.048h.006c-1.707-.06-3.62-.046-5.966-.046.204-.07-1.358-.065-3.033-.091m-221.298.386c-.005-.02.941-.02.942 0 .005.02-.94.02-.942 0M33.02 1.904c0 .02.008.042.012.063l2.985-.032c-.069.021.111.046.467.062.906.043 1.016.01 2.026.01 1.011-.001 1.367.032 2.515.02a1 1 0 0 1-.022-.094c-2.39.046-3.645.025-4.01-.061zm-1.007.11c0-.02-.945-.02-.943 0 0 .02.947.02.943 0m603.345-.003c0-.02-.946-.02-.943 0 0 .02.946.02.943 0m-329.096-.118c.437.021.772.085 1.514.091 1.429.012 2.29.006 3.491.032l-.546-.094zm375.995.09v.032h1.996v-.031zm-580.463-.258c.073.042.2.083-.979.11-.934.021-.599-.009-1.55-.006-.656.002-1.493.032-2.418.023.479.052 1.01.104 1.511.156l-.519-.125 6.983.013-3.006-.077h-.009l3.988-.001zm411.887.26c0-.02-.945-.02-.943 0 0 .02.947.02.943 0M36.938 1.466c-2.297.009-1.402.084-2.13.119-.733.034-2.346.004-2.82.054l1.996.108-4.995-.06c.337.03.679.061 1.016.093H27.01q.022.11.043.22l2.99-.001c-.009-.031-.016-.062-.03-.093l-1.984-.001h-.003a.2.2 0 0 0-.006-.046l2.927-.05.08-.06 2.438.03c1.707-.045 1.96-.084.604-.141 1.671-.056 3.114-.091 2.868-.172m160.605.518c-.004-.02-.947-.02-.943 0 .001.02.946.02.943 0m158.591-.002.501.015 1.489-.047-.501-.016zm278.217-.126c-3.02-.056-6.184-.076-8.957.001l2.011.14.989-.063 4.995.062c-.018-.042.02-.083-.039-.126.659.012.241 0 1.156.018s.773-.015-.155-.032m102.212-.507c-1.621-.021-1.667.028-2.017.06-.437.042-.487.08-1.489.11l3.006.078c-2.824.007-4.59-.035-5.005-.124l-.995.063-3.97-.03c-.01.02-.014.041-.028.062l-4.929-.032q-.039-.03-.085-.06h-2.957l-1.032.155-1.864.004c.045.012.079.025.024.037.642-.008 1.253-.017 1.914-.024.546-.028 1.83.017 1.934.029.355.041-.076.072.065.11l-1.987.017 2.987.062c-.655.035-2.3.044-1.895.096.238.03 1.604.055 2.442.012 1.065-.055 1.698-.118 1.443-.186 2.247-.016 3.863.014 5.982.03h.012c.139.019.531.031.906.046l-1.889.079c3.807-.005 5.57-.074 5.957-.189.929.009 1.431.034 2.469.03l3.479-.173-2.005-.154 1.981-.032c-.792-.018-1.666-.065-2.454-.076m-296.658.616q0 .015.006.031 1.992-.016 3.982-.033c-.173-.02-.336-.041-.509-.062zm-216.416-.038 2.002.061c-.004-.02-.004-.041-.009-.062zm462.757.025v.031h1.996V1.95zm-438.819-.035c0 .02.01.042.01.063h.994q-.007-.032-.009-.063zm74.771.047c0-.02-.947-.019-.943 0 .005.02.946.02.943 0m1.996 0c-.004-.02-.947-.02-.943 0 0 .02.946.02.943 0m266.294-.082c0 .032.01.063.015.094h.998l-.015-.094zm132.653.062v.031h1.996v-.031zm26.944-.1c.24-.033-.571-.104-2.032-.056-.3.01-.264.083-1.48.088-.674-.028-1.333-.062-2.011-.092-.938.03-2.036.073-2.396.112-.205.022.277.028.4.047l.516-.065 2.008.093c2.094.007 3.147-.017 4.559-.062l3.415.03.983-.094zm-246.383.113c0-.02-.948-.02-.943 0 0 .02.945.02.943 0m-310.129-.081h-.006c.214.04-.556.058-.98.094l2.994-.001c.187-.031-.679-.102-2.008-.093m562.454.078c-.005-.02-.947-.02-.943 0 .001.02.948.02.943 0m13.974-.112c1.326.142 4.764.185 4.987-.001zm-398.938-.007c-5.615-.005-3.312.124 1.023.125zm-141.104.053-1.492-.01c1.252.038 2.086.08 4.004.076-1.093-.043-.074-.052-.019-.093zm4.501.034q-.002.015.004.032l2.993-.002a.1.1 0 0 0-.006-.03zm-78.799-.094q.001.048.009.094l-1.987-.015 2.997.046c-.009-.042-.012-.084-.021-.125zm528.555.108c-.002-.02-.947-.019-.943 0 .001.02.948.02.943 0m-517.605-.143c.099-.128-2.043-.019-3.372-.011-1.802.01-1.233-.03-2.567.033-.346.016-1.375.079-.998.105l4.987.03-1.02-.14c.984-.006 2.018-.013 2.97-.017m324.142.09q.002.031.009.063h.998a.3.3 0 0 0-.009-.063zm-74.795-.003c0 .02.009.042.009.062h1.996l-1.508-.062zm3.985-.002c0 .021.009.042.009.063l1.987-.063zM23.465 1.625c-.87-.014-1.126-.05-1.968.002s-.174.108-.62.17c-.329.044-2.081.088-1.803.142l2.978-.016c-.014-.078-.032-.157-.046-.235H27h-.006c-.783-.064-1.812-.036-3.528-.063m167.087.299c0-.02-.946-.02-.943 0s.947.02.943 0m317.227-.093h.003l3.424.107c.665-.03 1.449-.026 2.469-.032l.995-.156c-2.637.053-3.354-.017-5.991-.03zm255.228.09c-.006-.02-.948-.02-.943 0 0 .02.947.02.943 0m-141.623 0c0-.02-.946-.02-.943 0 0 .02.946.02.943 0m-569.916.008q.493-.014.992-.027l1.498.012c-1.251-.039-2.085-.081-4-.077zm497.134-.003c1.453-.024 2.209-.044 3.488 0l.498-.016c-1.252-.039-2.086-.082-3.998-.077.005.03.012.062.012.093m126.654-.065q.001.03.01.062h.997a.3.3 0 0 0-.009-.063zm-356.057.042c-.001-.02-.945-.02-.943 0 .004.02.947.02.943 0m255.304 0c-.003-.02-.948-.02-.943 0 0 .02.947.02.943 0m-252.317-.001c-.005-.02-.945-.02-.943 0 0 .02.948.02.943 0m400.943-.052 2.002.062a.3.3 0 0 0-.009-.062zm-455.792.043c0-.02-.947-.02-.943 0s.946.02.943 0m86.679-.129-3.882.142c2.428.012 1.637-.04 2.957-.08.547-.017 1.342-.014 1.984-.016.669-.041-.802-.074-.708-.107.196-.068 2.043-.113-1.303-.11.342.057.629.114.952.171m445.041.126c.001-.02.942-.02.943 0 0 .02-.943.02-.943 0m-277.42-.236 2.02.047v.14l-3.61-.057-4.361-.018c1.236.032.448.085 2.527.077 1.611-.007 2.722-.024 4.397 0 .028.02.039.04.062.06 2.452.009 2.085-.03 1.98-.094l1.01.094 3.989-.001c-.519-.067-.991-.106-.021-.171l-1.508-.048-.989.063-1.535-.093zm-244.33.235c-.006-.02-.947-.02-.943 0 .003.02.948.02.943 0m512.637-.082c-1.389.035-1.654.003-2.993 0 0 .032.01.063.015.094.997-.01 1.99-.02 2.988-.032a.3.3 0 0 0-.01-.062m-333.105.026c0 .021.009.042.009.063.998.006 3.259-.022 2.982-.064zm204.449 0q.002.03.01.062h.998a.3.3 0 0 0-.01-.063zm-277.246.012 1.502.046.497-.015h-.006l-1.501-.046zm90.729-.112c-2.239 0-2.582.032-2.978.095-.879-.003-2.245-.032-2.991-.015l3 .078c.031-.021-.091-.042-.009-.063 2.022-.004 3.037-.03 2.978-.095m-81.753.156-1.017-.14-2.996-.015zm2.984-.064 2.002.062a.3.3 0 0 0-.009-.063zm83.75-.078c1.592.028.351.07 1.184.107.347.015 2.062-.005 2.313.033.231-.006.34-.011.522-.016l-3.51-.14zm-157.538.108h-.006l2.499.03.497-.016-2.996-.045q0 .015.006.03m3.979-.002 7.984.028-.989-.11c-1.762-.015-2.391 0-3.137-.057-.355-.027-.606-.082-1.899-.08zm171.509.012c-.005-.02-.942-.019-.94 0 0 .02.945.02.94 0m-156.607-.174c-2.564.038-4.901.074-4.956.174 1.867.04.143-.016 1.285-.046 1.143-.031 4.318-.043 3.671-.128m-326.044.155-3.98.032c-.004-.02-.014-.041-.014-.062l3.982-.032c.005.02.012.041.012.062m726.001.016c0-.02-.944-.02-.94 0 .002.02.945.02.94 0m-536.551-.006c0-.02-.946-.02-.943 0 .005.02.947.02.943 0m-66.787-.02c0 .01-.002.02.003.031h1.996q0-.017-.007-.032zm-76.792-.034c0 .021.011.042.016.063h1.992l-1.51-.063zm495.651.06h-.997q-.009-.031-.01-.063h.998a.3.3 0 0 1 .009.062m-249.34-.064h.006c0 .021.009.042.009.063l1.981-.063zm363.009.048c-.001-.02-.947-.02-.943 0 .001.02.948.02.943 0m-108.697-.064h.006l1.007.077 1.984-.063-2.5-.03zm-392.941-.053-.983.079 2.997.046h.006l-1.023-.125zm319.125.109c0-.02-.946-.02-.943 0 0 .02.947.02.943 0m-306.641.011c.606-.028-1.384-.08 0-.092 1.644-.013 3.002.007 4.477.028-.965-.14-4.695-.04-7.992-.09 1.17.05 2.349.103 3.515.154m5.487-.049 1.505.047.494-.016-1.507-.047zm87.744-.05a.4.4 0 0 0 .019.093h1.996q-.007-.048-.019-.094zm3.009.092 2.994-.001h-.006v-.016l-1.501-.046c-.497.02-.99.042-1.487.063M124.744 1.81c0 .01-.002.02.003.031h1.996q0-.017-.007-.032zm-88.77-.094c-.105.06 1.267.086 2.515.124 1.698-.044 1.574-.092 1.465-.157zm246.311.108c-.005-.02-.947-.02-.943 0 0 .02.946.02.943 0M54.99 1.766c-1.285-.059-1.337-.13-4.056-.038l3.519.107q1.24-.024 2.474-.046c-.17-.044-1.255.009-1.937-.023m87.695.02-1.502-.046h-.497c.005.032.014.063.018.094zm158.072-.048q-.245.048-.498.094l2.988-.032-1.019-.125zm-73.81 0c-1.016.028-1.67.05-1.483.094h1.996c-.005-.032-.014-.063-.019-.094zm2.499.03c0 .02.01.042.01.062h.997c0-.02-.009-.042-.009-.063zM81.329 1.701l-3.454-.03a1 1 0 0 1-.061.062l-1.944.033h4.956l2.035.06-1.025-.124 2.988-.049-2-.046zm236.853.109c-.004-.02-.947-.02-.943 0 .001.02.945.02.943 0m80.765-.143-2.969-.014 2.511.14-.015-.094h2.49q-.49.061-.973.125c5.16-.053 3.447-.197-1.026-.22q-.012.032-.018.063m-305.124.124.003.03h1.996c0-.01.002-.02-.003-.031zm638.697-.099h-.007c.98.004.617.04.571.062-2.063.002-2.907.062-4.965.064h-.012c-.01-.057 1.244-.078 1.98-.126l-2.005-.062zm-230.814.063c0 .02.009.041.009.062h1.996q-.002-.032-.009-.063zm102.228-.001q-.745.03-1.49.063l1.993-.001a.3.3 0 0 0-.009-.063zm-414.365.06 1.981-.047-1.505-.046h-.494c.004.031.014.062.018.094m82.736-.017c0-.02-.947-.02-.943 0 0 .02.946.02.943 0m168.561-.051c0 .02.009.041.009.062h.998c0-.021-.009-.042-.009-.063zm13.12-.036c-1.014.028 1.23.104 1.69.092 1.016-.028-1.23-.104-1.69-.092m-311.322-.048c1.347.04 1.042.087 1.019.14h1.996c-.947-.054-.984-.114-2.518-.156zm-70.783.106q-.002.015.003.031h1.996q0-.017-.006-.032zm648.273.005c0-.02.943-.02.943 0 .003.02-.941.02-.943 0m-303.217.013 2.985-.048-2.002-.046zm-13.08-.714c-1.826-.002-3.321-.055-4.983-.014l4.001.046c.082.035-1.422.052-.986.094h-1.993v.016l2.002.046a.3.3 0 0 0-.009-.062h.998l.015.093 2.988-.017c-1.385.041-.877.087-.977.142-.823-.003-1.56-.012-1.965.018-.77.055-1.186.109-.995.17 2.432-.042 2.642-.109 2.96-.188 2.664.005 2.42.065 3.968.105 3.269.085 4.513.032 5.014-.077 3.11.075 4.906.073 7.989-.004-.401.052 1.426.076 1.895.11.462.034-.711.044-.766.065-.095.037.843.052.803.085-.023.018-.843.022-.766.037.193.035 1.866.051 2.89.045-.855-.06 1.285-.115.793-.167-.792-.085-2.836-.109-1.852-.208 2.035.04 2.528-.034 4.468-.008h-.006l3.479-.073-1.993-.028a.3.3 0 0 0-.034.044l-5.932.034c-.078-.062-1.286-.098-3.015-.123q-.006.03-.019.061l-2.978.003c.318.015.656.03.961.046-.314.026-.57.004-.897 0-1.453-.014-1.804-.002-3.034.017l1.972-.157-3.479.063-3.507-.092-.885.11 1.911.078-4.993-.03.98-.125-3.986-.03c-.014-.042-.023-.083-.037-.125m29.029.676q0 .015.006.032l1.993-.001q.001-.015-.003-.031zm-228.397.014c-.004-.02-.947-.02-.943 0 0 .02.946.02.943 0m-75.772-.016c0 .01.006.02.006.031h1.996q0-.017-.006-.032zm514.636.013c-.004-.02.941-.02.943 0 .005.019-.943.02-.943 0m-187.536-.082c.441.036 1.212.053 1.013.094l1.983-.048a64 64 0 0 0-2.996-.046m-357.025.018c0 .02.01.042.015.063l1.98-.064zm618.31.047c0-.02-.947-.02-.943 0 .002.02.948.02.943 0m30.939-.053c-.232.039 2.002.074 3 .062a.3.3 0 0 0-.01-.062zm-704.114.04c-.002-.02-.947-.02-.943 0 0 .02.948.02.943 0m679.666-.098c1.825-.035 2.053-.036 3.501.015l-5.97.08c-.322-.066.976-.067 2.469-.095m-461.273.076c-.005-.02-.945-.019-.943 0 0 .02.948.02.943 0m5.49-.111c-1.402.036-1.647.07-1.474.126l.998-.001.98-.11zm473.224.11c-.002-.02-.944-.02-.94 0 0 .02.944.02.94 0m-543.533-.113c-.028.02.059.041.009.062q-.997.001-1.993.001c-.178.06.132.069 2.008.062.027-.02-.059-.042-.009-.063h1.996c.177-.06-.135-.069-2.011-.062m340.1.087c0 .01-.002.02.003.031h1.996q0-.016-.006-.032zM369.04 1.617l.012.094 1.996-.001c.186-.031-.678-.102-2.008-.093m-74.786.062q0 .015.006.031h1.992c0-.011.002-.022-.003-.032zm254.193.023.128.005-.232.003zh-.003c-.624-.03-1.255-.058-1.883-.087l2.987-.001zm-89.655-.12 1.019.125h2.979c-.165-.042-1.875-.082-.891-.124.274-.012 3.067.013 1.346-.034-1.435.012-2.978.023-4.453.034m-306.668-.066c-.897.027.605.037.36.078-.159.026-1.339.072-.821.11 2.673-.044 2.591-.125.461-.188m235.849.171c0-.02-.946-.019-.943 0 0 .02.947.02.943 0m-65.802-.051q.001.03.009.063h.998a.3.3 0 0 0-.009-.063zm255.347.047c-.005-.02.941-.02.943 0 .004.02-.942.02-.943 0m-71.845-.055c-2.058-.004-3.749.05-5.484.002l-.494.016c2.008.066 4.576.067 5.978-.018m-171.618-.45 3.5.04 2.484-.027-.906.047 1.419.044 1.458-.03c-.223.056 1.301.066 1.825.11.155.013-.63.017-.494.031.296.03.955.043.732.078l-3.503-.06q-1.522.046-3.046.094l-2.438-.03c.565.045-.703.069-.69.11s1.295.063.724.109l2.008-.017-1.01-.078c2.399.006 3.926-.004 5.474-.064h.495c-.132.043 1.418.122 3.012.123-.378-.096 1.2-.19-.046-.281l7.977-.003h.01c.141-.084-2.399-.088-4.535-.093-1.38.003-2.474.049-3.931.03-2.482-.03-.493-.12-.552-.184 2.327.015 5.931.082 5.981-.034l-3.036-.018.03-.043-2.481.063-1.508-.061c-.172.04.623.057 1.011.093-.656-.002-1.307 0-1.963.001-.013.021-.02.042-.033.062-3.355-.006-3.07-.11-4.508-.185zm428.915.493c-.005-.02-.946-.02-.943 0 0 .02.945.02.943 0m-480.713-.003c-.005-.02-.947-.02-.943 0 .003.02.948.02.943 0m-225.858-.02-1.498-.016 1.505.047 1.48-.047zm247.3-.13-1.49.048c.001.01.01.02.01.031l3.003.077-1.026-.156zm84.283.06 5.997.092-3-.062 1.99-.032-1.508-.062zm-137.628-.006c0 .031.009.062.018.094h.998a1 1 0 0 0-.018-.094zm-143.616.084c.392-.015-2.083-.084-2.954-.052-.391.015 2.084.084 2.954.052m156.565-.012c-.002-.02-.948-.019-.943.001.002.02.947.02.943 0m-248.3-.048c0 .02.007.042.012.063 2.003.002 3.034-.033 2.975-.095zm424.377-.069c-2.167.001-3.124.007-5.191.031-1.161.014-1.712.009-1.306.066l4.977.029c0-.031-.011-.062-.015-.094l3.985.03c.31-.072-.66-.063-2.45-.062m243.82.05-4.977.064-.016-.094zm-490.698-.076c0 .02.009.041.009.062l1.935.001q.033.03.073.061h.998l-1.022-.125zm80.771.108c-.005-.02-.947-.019-.943 0 0 .02.946.02.943 0M121.71 1.592q-.001.015.003.032l3.986-.033-.51-.063zm237.348-.095 1.007.124 1.461-.127-.579-.014zm-228.394.107c-.007-.02-.947-.019-.943 0 .001.02.948.02.943 0m9.985-.05c0 .02.01.04.01.062h1.004c0-.022-.011-.042-.016-.063zm529.557-.099c1.876-.015 1.507.007 2.118.04.874.048 2.072.057 1.895.116-.997-.004-2.362.018-2.945-.017-.733-.045-1.159-.09-1.068-.139m-524.567.096c0 .02.006.042.006.063l2.994-.002v-.015a64 64 0 0 0-3-.046m27.42-.011q-.743.03-1.486.063h1.996c0-.022-.008-.043-.012-.063zm16.437.04c0-.02-.947-.02-.943 0 0 .02.946.02.943 0m568.503-.018v.032h1.996v-.032zm-311.182-.006q0 .015.006.031h1.996q0-.017-.006-.032zm-225.415.012c-.005-.02-.947-.02-.943 0 0 .02.946.02.943 0m-153.555-.05c0 .022.007.042.012.063h.998l-.015-.063zm259.768-.134c-1.261.024-1.309.086-2.456.11-1.735.034-3.333-.008-2.997.08 1.639-.023 3.289-.044 4.928-.066.178-.041.343-.084.525-.124m-149.096.17c-.005-.02-.948-.02-.943 0 0 .02.945.019.943 0m421.89-.034-1.489.047-.504-.015 1.489-.047zm-334.128.03c-.004-.02-.946-.02-.943 0 0 .02.947.02.943 0m6.995-.05c0 .02.009.042.009.062h.998q-.001-.03-.009-.063zm-142.603-.005c0 .02.009.041.009.062h1.993l-1.507-.063zm526.581.01-1.489.047h.006-.998c-.501-.02-1.007-.04-1.508-.062h3.989zM60.84 1.537c-.005-.02-.948-.02-.943 0 .003.02.947.02.943 0m259.292-.01c0-.02-.945-.019-.943 0 .005.02.948.02.943 0m-211.413-.054c-.258.041 2.01.067 3.003.06-.209-.04.556-.058.979-.093zm497.674.061h-.497l-1.508-.062h1.996a.3.3 0 0 1 .009.062m134.641 0h.998q-.002-.032-.009-.063h-.998q0 .031.009.063M30.92 1.514c0-.02-.945-.02-.943 0 0 .02.947.02.943 0m414.35-.209c-1.093 0-1.804.03-2.97.034-1.37.006-3.051-.002-4.486.001-.273.077.997.065 3 .062l-1.001.062c1.503.02 2.984.042 4.495.06.725-.004 1.166-.05 1.462-.059 1.649-.046 3.076-.057 3.012-.13h.003c-1.416.008-2.158-.03-3.515-.03m-152.219.125c-.464-.012-2.682.066-1.657.093.465.012 2.686-.066 1.657-.093m166.178-.003c-1.321-.01-4.101-.021-4.444.032l5.991.06c-.564-.022-.592-.084-1.547-.092m-79.239.06c0 .011-.002.021.003.032h1.996q0-.017-.007-.032zm-82.831-.073c-.356-.03-2.021-.019-2.936-.016.442.036 1.552.069 2.472.091 1.352.033 1.622.024 2.524-.015h-.006c-1.325-.027-1.394-.005-2.054-.06m-101.676.023c0 .021.01.042.01.063h.997c0-.022-.009-.042-.009-.063zm258.249-.29c-.519.05-1.202.09-1.684.143-.487.054-.893.131-1.221.184-.187.03 1.749.024 1.886.016.934-.056.495-.096 3.064-.094-.014-.01 0-.02-.009-.031h-1.987c-.018-.073-.026-.145-.049-.219m-15.927.334c-.004-.02-.946-.02-.943 0 0 .02.947.02.943 0m361.075.012h-2.994v-.03l2.994-.001zm-581.461-.064c0 .02.007.042.007.062h.997a.3.3 0 0 0-.009-.063zm434.848.062h-1.995V1.46h1.995zM59.351 1.428c-.497.02-.987.042-1.484.063h1.996c0-.022-.01-.043-.015-.064zm315.64 0q0 .03.009.062h.998c0-.022-.009-.042-.009-.063zm-149.606-.065-.977.125h.998l1.971-.126zm451.812.122h-1.993v-.031h1.993zm-195.456-.02c-.004-.02.936-.02.943 0 .005.019-.942.02-.943 0m-223.95-.115c-1.402.036-1.647.07-1.474.125 1.675.018 3.441-.052 3.97-.095h.007zm232.898.127h-.998c0-.02-.009-.041-.009-.062h.998c0 .02.009.041.009.062m-222.4-.006.974-.126-1.972.032-2.026-.093zm-79.812-.016c-.006-.02-.945-.019-.943 0 .004.02.947.02.943 0m318.197 0c-.001-.019.942-.02.943 0 .005.02-.943.02-.943 0m-60.867.007-1.996.001q-.007-.031-.009-.062l1.996-.001q.007.031.009.062m-81.809-.015c-.005-.02-.944-.02-.943 0 0 .02.948.02.943 0m-50.845-.057q.001.03.009.062h1.993l-1.504-.063zm168.543-.034q.008.03.009.062-1.993.016-3.986.033c.041-.08 1.604-.1 3.977-.095m203.503.08c-.004-.02.943-.02.943 0 .002.02-.943.02-.943 0m-286.298-.003c0-.02-.947-.02-.943 0 0 .02.946.02.943 0m298.267 0c.002-.02.943-.02.943 0 .003.02-.943.02-.943 0m-295.273-.001c-.002-.02-.947-.02-.943 0 .002.02.948.02.943 0M.045 1.428c-.004-.02.937-.02.944 0 .004.02-.943.02-.943 0m730.009.014h1.996c-.114-.035.113-.056.982-.079l-1.999-.046zM5.969 1.426c0-.02-.944-.02-.94 0 .002.02.945.02.94 0m737.052-.017v.03h1.995v-.03zm-311.209.012c-.001-.02-.945-.02-.943 0-.001.02.947.02.943 0m217.456.008h-.998a.3.3 0 0 1-.01-.062h.998q.009.03.01.062M456.766 1.38c.762.042 3.683.005 5.017.017.118 0 .543.047 1.468.027.391-.008.449-.015.494-.031-.624.007-1.357-.004-1.962.004-.055-.017-.023-.022-.028-.035.836.015.83-.028.943-.03.756-.01 1.321.004 2.066-.003l-.061-.003c-.087-.01.103-.025-.497-.027h-.955c-.752.003-.196.023-.556.033-.359.01-1.157 0-.943.03-.677.002-1.327.001-1.996.001l1.972-.079-1.993-.077zm195.514.032c-.002-.02.943-.02.943 0 .004.02-.943.02-.943 0m-98.774-.05c1.913-.006 3.254.001 4.001.061-1.913.006-3.254-.001-4.001-.06m117.704.062h-1.996a.3.3 0 0 1-.009-.063h1.996q.008.03.009.063m-288.269-.016c-.001-.02-.945-.019-.943 0 0 .02.947.02.943 0m289.288 0c-.005-.02.942-.02.943 0 .005.02-.942.02-.943 0m-518.668-.001c-.006-.02-.947-.02-.943 0 .002.02.948.02.943 0m445.859-.012c-.003-.02.943-.02.943 0 .002.02-.943.02-.943 0m18.897-.177c.054.033-.071.08.024.109.205.065 1.281.04 2.496.078l-.512-.125 1.989-.032h-.006zm141.623.172c-.007-.02-.943-.02-.943 0s.947.02.943 0m-134.626-.08c0 .02.009.042.009.062l2.497.03.497-.015-1.007-.078zm-99.701.077c-.004-.02.941-.02.943 0 .005.02-.942.02-.943 0M364.96 1.119l1.019.124c.496-.02.994-.042 1.486-.063l6.516.216h.009l-1.071-.123-1.935-.001.479-.157-3.021-.059zm293.301.26c-.004-.019.941-.02.943 0 .005.02-.943.02-.943 0m-357.086-.031 1.504.046.498-.016-1.505-.046zm417.889-.029 1.505.063 1.489-.048V1.32zm-222.375.047c-.005-.02.936-.02.943 0 .004.019-.942.02-.943 0m-313.205-.08c.004.03.014.062.018.093h1.996c-.195-.04.567-.06.977-.095zm326.132.028a.3.3 0 0 1 .009.063h-2.99c0-.01-.007-.02-.007-.03 1.266.005 1.882-.02 2.988-.033m97.745.032v.031h1.996v-.031zm4.989-.001v.031h1.993v-.032zm-257.342-.191 1.034.218q.49-.062.974-.125c1.735.03 2.947.046 4.486-.002l1.416.046-.891.032 1.984.015-.986-.11-3.006-.014-.028-.094zm5.978.2c0-.02-.942-.019-.94.001 0 .02.945.02.94 0m103.778-.025c-.102.013.106.022-.021.033.378-.007.852.003.952-.017.098-.018-.701-.008-.931-.016m-159.625.017c-.006-.02-.947-.02-.943 0 .003.02.948.02.943 0m8.975-.207c-.15.056 1.381.078.849.14-.415.048-1.813.089 1.187.078.237-.046.538-.094.793-.14zm83.792.123a63 63 0 0 0-2.984.048c.915.032 1.567.052 2.997.046 0-.032-.008-.063-.013-.094m198.511.072c-.002-.02.943-.02.943 0 .004.019-.943.02-.943 0m146.558-.004c-.001-.02-.943-.02-.943 0s.947.02.943 0m-205.426.006q-.001-.031-.009-.062l1.996-.001zm-240.372-.065q.001.03.009.063h.998c0-.022-.009-.042-.009-.063zm85.199-.347c-.984.017-.503.064-.476.094-.515-.01-1.365-.033-1.993-.03l-1.977.125 3.988-.001c.014-.032-.048-.063-.012-.094 1.808.035 2.228.056 2.014.124-3.051.01-2.894.083-3.964.158l3.986.03.5-.063c1.521.023-.291.077 2.506.061h-.006l-3.016-.139c2.309-.077 3.138.003 3.006.077l2.967-.048c-.971-.052-3.349-.065-4.447-.107-1.606-.06-1.16-.135-3.076-.187m187.085.402h-.998q-.007-.031-.009-.062h.998q.007.03.009.062m-249.365-.017c-.005-.02-.946-.02-.943 0s.947.02.943 0m160.623 0c-.005-.02.942-.02.943 0 .005.02-.94.02-.943 0m-150.641-.082 3.006.092q-.008-.046-.015-.094zm264.313.076-.498.016-1.504-.094h.995zM6.964 1.254c0 .02.008.042.012.063h1.996c-.004-.022-.006-.042-.015-.063zm729.025.047c-.004-.02-.941-.02-.943 0 0 .02.945.02.943 0m-547.54-.002c-.004-.02-.947-.02-.943 0 0 .02.946.02.943 0m327.649.013q-.066 0-.131-.003h.012-.021q.791-.03 1.584-.058zm-391.479-.018c-.005-.02-.948-.02-.943 0 .004.02.945.02.943 0m655.255-.001c-.003-.02-.947-.02-.943 0s.947.02.943 0m-236.322-.006c-.005-.02.935-.02.943 0 .004.02-.943.02-.943 0m-168.61 0c-.002-.02-.947-.02-.943 0 .002.02.948.019.943 0m177.533-.206c-.811.09-.302.204-3.958.22 1.224-.069 1.77-.11.973-.188l2.979-.032zm-381.97.116.003.03 1.959.001q.022.03.049.061h.998l.979-.094zm8.963.074c0-.02-.948-.019-.943 0 0 .02.946.02.943 0m142.63-.041c1.812-.008 2.698.008 4.01.045.882.024 1.365-.015 1.974-.032l-3.525-.076zm293.207.036c-.001-.02-.948-.02-.943 0 .002.02.947.02.943 0m17.981-.005.5.016 1.489-.048-.5-.015zm-348.09-.047c0 .02.009.041.009.062h1.993a.3.3 0 0 1-.009-.063zm158.563-.095 3.027.014 2.982.14-1.041-.186c-.737-.006-1.703.006-2.395 0-1.17-.01-.016-.055-1.093-.062zM297.15 1.115c-3.074.007-3.169.075-2.964.157 2.14-.035 3.219-.08 2.964-.157m78.802.093c-.228.039 2.016.073 3.003.061q-.007-.031-.009-.062zm171.558.062h-.998a.3.3 0 0 1-.009-.062h.998q.007.03.009.062m-244.351-.017v.016l3.988-.002c.168-.045-.48-.065-1.513-.093zm275.756-.055 1.508.062h-1.996q-.008-.03-.009-.062zm28.843-.07c-1.658 0-3.287.043-4.407.079l7.983.044q-1.788-.06-3.576-.123m-258.756.106c-.004-.02-.948-.019-.943 0 .001.02.945.02.943 0m291.257.01c2.158-.05 3.141.01 5.481-.006.979-.007 3.08-.083 2.475-.12l-3.476.061c-1.503-.04-3.002-.082-4.505-.123.005.063.025.125.025.188m-410.913-.039c0 .01-.002.02.003.031h1.996q.001-.015-.003-.032zm396.92-.005c-.001-.02-.947-.02-.943 0 .002.02.948.02.943 0m-182.522-.003c0-.02-.946-.019-.943 0 0 .02.947.02.943 0m-227.377-.08c.004.03.013.062.018.093h1.993c-.005-.032-.014-.063-.019-.094zm64.816-.027c.19.042-.158.163 2.035.088.114-.004.023-.064.953-.076.737-.01 2.219-.006 1.986-.045l-3.982-.03zm410.931.047q.001.031.009.063l1.984-.063zm-283.279.042c0-.02-.948-.019-.943 0 0 .02.945.02.943 0M259.253 1.13c0 .021.009.042.009.063h.998q-.001-.031-.009-.063zm-79.804.047c0-.02-.947-.019-.943 0 .001.02.946.02.943 0m355.054-.012c-.003-.02-.947-.02-.943 0 0 .02.948.02.943 0m-235.364-.082c.005.031.016.062.016.094l1.992-.001c.187-.031-.678-.102-2.008-.093m368.033.029q.001.03.009.062h1.996a.3.3 0 0 0-.009-.063zm-276.819-.064c-.769-.01-1.663.003-2.459-.001l3.512.123.336-.007c1.499-.038.247-.095-1.389-.115m93.311.12h-1.996a.1.1 0 0 1-.006-.031l1.996-.001q.006.015.006.031m-85.803-.016c0-.02-.948-.02-.943 0 0 .02.944.02.943 0m176.593 0c-.004-.02.938-.02.943 0 .001.02-.943.02-.943 0m-245.386-.019c0 .01-.002.021.003.032l2.994-.002q0-.015-.006-.031zm82.782.03 2.994-.002q0-.015-.006-.03c-1.262.005-1.882-.019-2.997-.031q0 .03.009.063m199.475-.037v.032l3.986-.033v-.031zM520.538.998c-2.14.035-3.219.08-2.969.157l1.007-.062 2.972-.002h.007zm-87.774.14c0-.019-.946-.018-.943.001 0 .02.947.02.943 0m190.521-.046c.669.02 1.333.04 2.002.062q-.002-.032-.009-.063zm-249.332.054h-.003 1.993q-.002-.032-.009-.063h-.495q-.742.03-1.486.063M454.712.99q.014.078.021.156h2.994l-.326-.02c-.679-.044-.82-.085-.696-.137zm15.951.135c.001-.02-.947-.02-.943 0 .001.02.946.02.943 0m112.702-.006c0-.02-.947-.02-.943 0s.945.02.943 0m-403.906-.051c0 .02.009.042.009.062h1.993c0-.021-.01-.042-.01-.063zm4.995.045.501.015 1.486-.047-.503-.016zm239.353-.049c0 .021.009.042.009.063l1.993-.001q-.001-.03-.009-.063zm-182.52-.02c0 .02.009.042.009.062h.998a.3.3 0 0 0-.009-.062zm328.11.047c-.001-.02-.948-.019-.943 0 .006.02.948.02.943 0M358.45.902c-1.94.08-4.107.056-6.921.067-1.016.004-.57.062-1.535.077l3 .046-.531-.062 2.505-.032c.018.02.031.04.049.062l2.942-.001c.15-.073 2.737-.096.491-.157m-78.286.064-1.975.125h2.994a1 1 0 0 0-.022-.126zm350.097.093v.03h1.996v-.031zm16.449-.036c-1.103.039-2.067 0-3.482.001l2.493.062 1.49-.047zm4.474.046c0-.02-.947-.02-.943 0 .002.02.948.02.943 0m-109.665-.031 2.966.046c.237-.042-.241-.086-.491-.124l-.14-.03c-.121-.032-.285-.063-1.395-.065-.305.058-.63.115-.94.173m-314.218.027c-.005-.02-.947-.019-.943 0 0 .02.946.02.943 0m75.803-.109 2.996.03h.004c.337.031.677.062 1.01.094a1 1 0 0 0-.022-.125zm8.966.106c-.005-.02-.945-.02-.943 0 0 .02.947.02.943 0m274.801-.054-1.489.063h1.996q-.002-.031-.009-.063zM406.836.977c.838.03 1.671.062 2.508.093l.498-.016c-.906-.022-1.138-.042-1.01-.078zm-214.423.07h.006l.501.016 1.486-.048-.503-.015zm5.493.014c.155-.052.316-.104.47-.157L195.383.89zm427.372-.001c2.062.002 3.588.005 4.977-.048l-1.489.012c-.646-.01-1.298-.018-1.944-.027zm-499.179-.001 1.486-.063-2.997-.03c.505.03 1.005.062 1.511.093m79.263-.126-.974.126c1.894-.024 2.167-.067 1.972-.126zm107.715.02 3.506.091.498-.016-1.017-.108zM577.89.978l-1.489.063h1.996a.2.2 0 0 0-.01-.063zm-325.662.045c-.005-.02-.948-.02-.943 0 0 .02.945.02.943 0m163.583-.05q.002.03.009.062h.998a.3.3 0 0 0-.009-.063zm2.002.03 3.992.03q-.002-.031-.009-.063a173 173 0 0 1-3.992-.03q.001.032.009.063m197.47-.098q.007.047.012.094l2.497.03.497-.015-2.011-.109zm4.996.062q.001.03.009.062l1.984-.063zM191.394.94c-1.812-.009-4.098.077-1.462.09.888.004 1.899-.07 1.462-.09m242.371.058q0 .015.006.031h1.993q.002-.015-.004-.032zm90.762-.001q0 .015.006.03h1.996q0-.015-.006-.031zM634.241.995v.031h1.996V.994zM298.621.958l-1.484.063h1.993c-.004-.022-.012-.042-.012-.063zm75.787-.03c-2.809.061-5.365-.006-8.475.003l2.497.088 6.491-.03q-.253-.03-.513-.062m-294.69.086h-.998c-.004-.02-.012-.041-.012-.062h.998c.004.02.012.041.012.062M481.625.902l3.986-.017-.98.125 3.986-.033c.386-.142-2.037-.161-6.012-.185zM187.387.845c-1.904.02-3.402.017-5.438.04-2.036.022-2.961.043-2.515.12h.006c1.862-.008 2.696-.081 4.676-.09 1.985-.01 3.143.04 3.271-.07m315.17.143c0-.02-.947-.02-.943 0 .001.02.945.02.943 0m-236.343.015h.995c.177-.06-.104-.103-2.011-.125h-.006zm82.745-.019c0-.02-.947-.019-.943 0 0 .02.946.02.943 0M515.543.937q0 .031.009.062h1.996a.3.3 0 0 0-.01-.063zm254.312.045c-.008-.02-.946-.02-.943 0 0 .02.947.02.943 0M461.661.972c-.001-.02-.945-.02-.943 0 0 .02.947.02.943 0M392.322.797c-1.089-.014-1.168.026-2.152.026-1.762 0-3.254.004-1.797.068l4.468-.065-2.967.157 3.983-.064q.008.032.009.063h1.999c0-.022 0-.043-.009-.063h-1.999c.186-.045-.078-.104-1.535-.122M318.063.95q0 .015.006.031l3.989-.001a.3.3 0 0 0-.009-.063zm8.96.023c.388-.015-2.088-.084-2.957-.052-.391.015 2.087.084 2.957.052m166.086.003 2.487-.032a.1.1 0 0 0-.006-.031l-3.995-.03q.758.046 1.514.093M429.749.78l1.062.092 1.953.064-4.996-.061c2.491.125 6.081.12 7.962-.017l-.995-.08zM288.113.947c0-.02-.946-.02-.943 0 0 .02.948.02.943 0M535.486.899c0 .02.009.042.009.063l1.996-.001q-.001-.03-.009-.063zM292.105.945c0-.02-.947-.02-.943 0 .001.02.945.02.943 0m248.349 0c-.003-.02-.947-.02-.943 0 0 .02.948.019.943 0m8.002-.05q0 .031.009.062h2.994-.006V.94a64 64 0 0 0-2.997-.046M309.073.891c0 .021.009.042.009.063h.006l1.981-.064zM565.881.827c-2.796.008-3.643.035-3.451.126l1.983-.094 3.992.03c.178-.07-.492-.068-2.524-.062m2.497.108c-.001-.02-.948-.019-.943 0 .006.02.947.02.943 0M328.015.805c1.347.04 1.042.087 1.019.14 2.573-.002 3.179-.051 2.97-.126zm-67.81.075 2.005.062c0-.021-.009-.042-.009-.063zm77.277-.125c-2.709.082.127.139 2.527.186l.973-.125c-.742-.004-1.726.007-2.414 0-1.161-.01-.002-.054-1.086-.061m87.271.168c-.002-.02-.948-.02-.943 0 .002.02.947.02.943 0M273.148.922c-.005-.02-.945-.02-.94 0 .004.02.943.02.94 0M437.732.84l.015.094h.995L438.73.84zm191.486.078c-.001-.02-.948-.02-.943 0 .002.02.947.02.943 0m4.986-.001c0-.02-.947-.02-.943 0 .003.02.947.02.943 0M591.33.819c.182.04-.573.06-.983.094h1.996q-.007-.048-.015-.094zm-75.8.024 2.002.062c-.004-.02 0-.042-.009-.063zm11.963-.035c0 .031.008.063.012.094 1.335.008 2.18-.063 1.984-.095zm108.701.077c0-.02-.942-.02-.94 0 0 .02.944.02.94 0M290.1.883c-.005-.02-.947-.019-.943 0 .005.02.946.02.943 0M447.705.836l2.005.062c0-.02-.009-.042-.009-.063zm11.127-.034c-1.014.027 1.231.104 1.69.091 1.015-.027-1.23-.104-1.69-.091M319.034.793c-1.335-.008-2.178.064-1.978.095l2.994-.001c-.441-.035-1.211-.053-1.016-.094m99.783-.065c-1.628-.05-2.253.023-2.072.056-.979.002-1.971.002-2.954.003l-.488.094 2.487-.05c1.43.06 2.969.016 4.977.014-.929-.013-1.654-.108-1.95-.117m101.676.13c-.001-.02-.948-.02-.943 0 .001.02.947.019.943 0M462.662.798q0 .032.009.063h.998q-.001-.032-.009-.063zm118.667.039c0-.02-.947-.02-.943 0 .002.02.948.02.943 0M407.806.82q-.002.016.003.031h1.996c0-.01.002-.021-.003-.032zM268.167.783c0 .02.009.042.009.062h.998a.3.3 0 0 0-.009-.063zm85.776-.004c-1.685-.174-5.844-.067-2.484.064l1.114-.065zm14.938-.001c-.883-.032-3.335.04-2.939.054.884.031 3.339-.04 2.939-.054m150.604.017c-.001-.02-.944-.02-.939 0 .002.02.944.02.939 0M302.023.456c-2.828.003-2.756.09-4.965.127-.173-.03-.339-.062-.513-.093l-2.984.028-3.501-.057 1.011.093-10.959.037-.983.109c2.815.087 4.792 0 7.971-.019l1.013.079 2.976-.018.528.062c3.734.01 1.175-.096 4.471-.095l1.007.078 1.504.014c1.33-.04 2.629-.082 3.977-.124 2.331.046 5.495.025 7.913.025 2.163 0 2.965.004 5.105-.002h-.009c1.125-.003 3.13 0 4.419 0 .333-.039.701-.018.992-.071s-1.106-.056-3.064-.071c-.792-.006-1.608-.063-2.432-.075-.51.04-.995.083-1.495.124-4.185.01-6.703.089-6.986-.09l-3.934.034-2.032.062zM544.44.74l2.005.062q-.002-.032-.009-.063zM325.507.697l-1.49.047 1.999.047q-.007-.048-.015-.094zm-60.37-.132 1.013.062-4.987.034 1.529.124 9.445-.066.08-.02c.107-.041-.333-.033-1.541-.042-1.38-.01-2.133-.03-3.495-.032 0-.02-.035-.04-.048-.06zm115.716.047.028.046 2.978.109-1.031-.218zm84.766.14c-.002-.02-.948-.02-.943 0 .002.02.947.02.943 0M338.98.753h-.003l1.996-.001q-.001-.03-.009-.063h-.498zM270.126.407c-.719.047-1.328.094-2.002.142l2.967-.017q.033.03.073.06l4.953.031-.974.126c.993 0 2 0 2.988-.002.419-.058-.546-.083-1.507-.122-.633-.025.013-.043-.666-.06-.674-.019-1.708-.003-2.395-.033s.109-.064-.632-.094c-.36-.014-2.283-.008-2.805-.031m254.361.308q0 .015.006.032l1.993-.001c0-.01.002-.021-.003-.032zM342.947.658c0 .021.01.042.01.063l1.986-.063zm20.942-.04c0 .032.01.063.015.094h2.991l-.013-.094zm27.923-.01c0 .03.012.062.012.093 1.331.008 2.175-.063 1.981-.094zm122.687.017c-2.468-.001-4.773-.017-5.975.064 2.095-.01 3.804-.04 5.981-.033V.625zm-165.57 0q0 .03.009.062h.998q-.001-.031-.009-.063zm10.965-.036-4.99-.03c.009.042.012.084.022.126l6.967-.065-1.023-.156zM212.323.665c-.003-.02.94-.02.94 0 .004.019-.94.02-.94 0m84.75.012h-.998c0-.02-.009-.041-.009-.062h.998q.008.03.009.062m76.77-.015c-.005-.02-.945-.02-.943 0 0 .02.948.02.943 0M127.551.66c-.004-.02.942-.02.943 0 .005.02-.942.02-.943 0M229.224.658c0-.02-.948-.02-.943 0 0 .02.945.02.943 0m88.791-.02q-1.244.014-2.488.032l-.5-.016 2.981-.048q.007.015.007.031m10.946-.13c-3.666-.01-6.103.047-6.955.159 4.176.009 6.736-.012 8.954-.129l-3.982.033zm74.814.032c.005.042.014.084.018.125h.998q-.012-.062-.018-.125zM192.346.657h-1.996c0-.02-.009-.041-.009-.062l1.996-.001a.3.3 0 0 1 .009.063m175.531-.04q0 .015.006.031h1.996a.1.1 0 0 0-.006-.032zM124.554.63c-.004-.02.941-.02.943 0 .005.02-.943.02-.943 0m18.912-.052c.005.021.012.042.012.063h-1.995c.496-.02.994-.042 1.486-.063zm339.09.042c-.005-.02-.945-.02-.943 0 0 .02.948.02.943 0M407.77.57c0 .02.009.042.009.063l2.991-.001c0-.021-.01-.042-.01-.063zm20.935-.024 1.013.078h1.993L429.202.53zm196.478.06c-.004-.02-.947-.019-.943.001.003.02.947.02.943 0M215.311.524l1.01.093 2.981-.048c-1.156-.044-2.23-.051-3.991-.045m13.897.03c-.883-.031-3.336.04-2.935.054.884.032 3.336-.039 2.935-.053M386.81.485c.005.042.014.084.019.126l1.986-.048a.1.1 0 0 0-.006-.032l-1.501-.046zm-210.403.1c-.004-.02.938-.02.943 0 .003.02-.939.02-.943 0m157.529 0c0-.02-.946-.02-.943 0 0 .02.947.02.943 0m83.798-.08c0 .03.011.062.015.093l1.984-.047-1.502-.047zm-66.84-.036c-.328.041-.649.083-.976.125h1.999c-.005-.043-.016-.084-.025-.126zm90.769-.005c-1.554-.007-4.173.039-4.975.08 1.152.044 2.233.052 3.995.046zM363.858.431l-.97.157c2.14-.036 3.218-.08 2.963-.158zM295.087.57c-.005-.02.937-.02.943 0 .004.019-.941.02-.943 0M133.478.487c0 .031.014.063.018.094h.998a1 1 0 0 0-.018-.094zm532.593.078c-.002-.02-.948-.02-.943 0s.947.02.943 0M308.533.424c-1.526-.035-1.919.002-3.522 0h-.006c1.73.083 4.504.034 4.022.155l1.972-.08c-.774-.02-1.711-.058-2.466-.075m88.25.088c0 .02.01.042.01.062h.998q-.001-.032-.01-.063zm-153.598 0c0 .02.01.041.01.062h1.992l-1.504-.062zm170.56.024q-.001.015.003.032l2.994-.001q0-.015-.006-.032zM503.51.503l4.995.061c0-.031-.007-.062-.012-.094zm8.972-.034c0 .031.01.063.015.094a63 63 0 0 0 2.982-.048 64 64 0 0 0-2.997-.046m-87.787.079c0-.02-.947-.02-.943 0 0 .02.946.02.943 0m7.995-.05 2.005.062a.3.3 0 0 0-.009-.063zM207.281.51l1.502.046.497-.015-1.504-.046zM549.39.488q0 .032.009.063l1.986-.063zM378.824.456c-4.053-.001-1.095.096.012.094zM136.45.533c-.003-.02-.944-.02-.94 0 0 .02.945.02.94 0M312.982.53c-.006-.02-.947-.02-.943 0 .002.02.948.02.943 0m93.753-.007c-.001-.02-.947-.019-.943.001.003.02.948.02.943 0M264.105.52c-.004-.02-.947-.02-.943 0 .006.02.945.02.943 0M427.682.515c-.004-.02-.946-.019-.942 0 0 .02.946.02.942 0m91.782-.048q.002.03.009.062h.998a.3.3 0 0 0-.009-.063zm3.967.045c0-.02-.946-.02-.943 0 .005.02.946.02.943 0M125.995.396c-1.535.01-3.015.02-4.477.032.57.052 4.287.123 5.844.088 1.178-.027-.497-.108-1.367-.12m101.233.09q0 .017.006.032h1.993q.001-.017-.003-.032zM467.596.455q.001.03.01.062h1.992l-1.507-.062zM163.385.448c0 .02.009.041.009.062h.998q-.001-.031-.009-.062zM331.921.49c-.007-.02-.947-.02-.943 0 .001.02.948.02.943 0m1.996 0c0-.02-.946-.02-.943 0 0 .02.947.019.943 0m90.787-.052c0 .02.009.041.009.062h.995q-.002-.031-.009-.063zM223.23.457q-.002.015.003.032l1.996-.001q0-.015-.006-.032zM392.786.451q0 .015.006.031h1.993q.002-.017-.004-.032zM160.397.449c0 .01.006.02.006.031h1.993c0-.011.002-.021-.003-.032zm366.04-.047q.001.031.01.062h.997a.3.3 0 0 0-.009-.062zM221.225.396c0 .02.009.041.009.062h.998c0-.021-.009-.042-.009-.063zm-80.801.042c0-.02-.946-.02-.943 0 0 .02.946.02.943 0M334.927.412l2.997.03a.3.3 0 0 0-.009-.063l-2.997-.03q.001.032.009.063m166.581.03L503.5.44l-1.507-.062h-.495c0 .02.01.042.01.063M350.885.405q0 .015.006.031h1.996q0-.016-.006-.032zM302.002.331c-2.373-.005-3.937.015-3.973.096 2.372.005 3.936-.015 3.973-.096m-72.806.03c0 .02.009.042.009.063l1.981-.064zm155.597 0q.001.03.009.062l1.996-.001-1.507-.062zm94.76.026q0 .015.006.031h1.996a.1.1 0 0 0-.006-.032zM321.936.4c-.005-.02-.945-.02-.943 0 0 .02.948.02.943 0M196.28.343c0 .02.009.041.009.062.997.006 3.259-.022 2.982-.064zm238.388.03c0 .01-.002.02.003.03h1.996q0-.015-.006-.031zm18.936-.07q.001.03.009.062c1.271-.006 1.877.018 2.997.03l-.015-.093zm-72.8.075.501.015 1.489-.048-.5-.015zM136.42.377c0-.02-.946-.02-.943 0 0 .02.946.02.943 0M577.295.323q.001.031.009.063h1.993q-.749-.032-1.505-.063zm-319.22.025-1.95.002q0 .015.006.032l2.988-.002q.244-.062.482-.125zm236.407.018c0-.02-.946-.02-.943 0 0 .02.947.02.943 0M181.299.364c-.001-.02-.945-.02-.943 0 0 .02.947.02.943 0m4.016-.002.5.016 1.487-.048-.504-.015zM352.859.28c-1.484.023-2.197.066-3.982.065q0 .015.006.03h3.995q-.006-.048-.019-.095m74.817.033c0 .021.01.042.01.063l1.986-.063zM142.398.344c0-.02-.944-.02-.94 0s.942.02.94 0M399.722.339c-.004-.02-.947-.02-.943 0 0 .02.946.02.943 0M504.453.33c0-.02-.948-.02-.943 0 0 .02.945.02.943 0M421.689.283q0 .03.009.063h.995q-.002-.032-.009-.063zm-201.48.02q0 .015.006.03h1.993q.001-.015-.003-.032zm165.573.01.5.015 1.49-.047-.501-.016zm5.969-.08c-1.124.013-1.69.038-2.988.032l1.508.062c1.016-.029 1.667-.05 1.48-.095M262.073.3c-.005-.02-.945-.02-.943 0 .004.02.947.02.943 0m15.976-.054 2.005.062q-.001-.03-.009-.063zM209.21.291c0-.02-.947-.02-.943 0s.946.02.943 0m80.789-.002c-.004-.02-.946-.019-.943 0 0 .02.948.02.943 0M224.194.285l.501.015 1.489-.047-.5-.016zm-90.78-.001c0-.02-.947-.02-.943 0 0 .02.945.02.943 0m284.286 0h1.987q-.001-.031-.009-.062h-.495c-.496.02-.987.042-1.483.063m7.944-.018c-.005-.02-.943-.02-.94 0 0 .02.944.02.94 0M112.479.179c.077.036.549.062 1.013.094h-1.993l.04-.043-2.054-.05q1.496-.002 2.994 0m12.951.076c0-.02-.946-.02-.943 0 0 .02.946.02.943 0M234.158.234c0 .01.006.02.006.031h1.996a.1.1 0 0 0-.006-.032zM334.897.193q0 .03.009.062h.998c-.005-.02-.005-.042-.009-.063zm16.931.04c-.006-.02-.948-.02-.943 0 .003.02.948.02.943 0m30.92-.013c-.006-.02-.947-.019-.943 0 .002.02.948.02.943 0M253.107.195h-1.996c0-.01-.006-.02-.006-.03l1.996-.001q.006.015.006.031M119.427.162c0-.02-.947-.02-.943 0 .002.02.948.02.943 0m130.677.003-2.991.001c0-.01-.006-.02-.006-.031l2.994-.001q.004.015.003.031M122.415.13c0-.02-.946-.02-.943 0 0 .02.946.02.943 0m3.989 0c-.002-.02-.948-.02-.943 0 .001.02.947.019.943 0M428.659.076c-.004-.02.943-.02.943 0 .003.02-.943.02-.943 0m-3.018-.014h-.998a.3.3 0 0 1-.009-.063h.998q.007.032.009.063"/></svg>