<svg xmlns="http://www.w3.org/2000/svg" width="100" height="61" fill="none" viewBox="0 0 100 61"><g fill="#000" clip-path="url(#a)"><path d="M.071 35.818c.083-.848.34-3.023 1.073-3.565.403-.3 1.237-.056 1.686.063 2.96.777 5.779 2.59 8.428 4.095 1.907 1.082 3.912 2.13 5.637 3.5.803.638 1.495 1.308 2.007 2.208.563.99.943 2.12.631 3.259-.319 1.165-1.112 2.219-1.904 3.098-1.765 1.962-3.971 3.44-5.908 5.207-1.954 1.785-5.535 5.869-7.586 7.024-.34.192-.665.277-1.05.172-.548-.15-.91-.64-1.156-1.128-.35-.697-.56-1.534-.313-2.298.396-1.222 1.541-1.965 1.834-3.286.362-1.627-.77-14.712-1.438-16.2a1.47 1.47 0 0 0-.724-.732c-.396-.468-1.033-.83-1.217-1.417M12.62 47.306c.559-.535 2.033-1.974 2.067-2.82.022-.557-1.088-1.353-1.508-1.681-1.032-.807-3.462-2.094-4.71-2.32-.035.65.864 8.35 1.05 8.85l.093.087c.612-.081 2.523-1.613 3.008-2.116M73.673 4.522c.586-.136 1.299.023 1.842.268.902.416 1.347.826 1.389 1.882.105 2.492-.54 5.025-1.017 7.455-.624 3.177-1.413 6.246-1.69 9.485-.107 1.246-.345 4.118-1.228 4.982-.755.74-4.554 3.822-5.808 2.918-1.035-.979.14-3.434.358-4.582.264-1.35.51-3.111.77-4.498.375-1.975.958-3.757 1.034-5.776-.773.298-3.243 1.295-3.747 1.877-.901 1.037-.76 3.464-.96 4.817-.155 1.059-.287 2.28-.916 3.222-.681 1.018-1.913 1.804-3.089 2.095-.467.084-.768-.026-1.154-.281-.666-.44-.708-1.453-.757-2.176-.016-.235.247-1.112.317-1.424.337-1.497.763-2.996.82-4.543.075-1.219-1.059-2.226-.965-3.431.087-1.123 1.47-1.377 2.273-2.057.282-1.885.927-4.13 1.367-5.989.224-.945 2.446-1.072 3.238-1.272.588-.15 1.292.099 1.852.323.063 1.413-.789 4.19-.195 5.247.236.418 1.884-.307 2.775-.3h.121c.133-1.427.566-2.785.895-4.205.237-1.027.327-2.57.991-3.456.283-.376 1.02-.552 1.484-.58M8.389 28.701c-.096-.256-.257-.591-.334-.837-1.405-4.462.25-10.629 2.205-14.711 1.339-2.795 3.094-4.545 5.615-6.16.387-.247 1.321-.986 1.677-1.053.972-.18 3.606.567 4.39 1.025.69.318 1.36 1.07 1.474 1.842.894 2.039-.793 6.69-1.42 8.87-1.49 5.18-4.13 10.184-9.21 12.532-.99.458-2.368.771-3.258-.076-.613-.574-.67-.723-1.14-1.432m5.212-9.782c-.087.267-.086.342-.108.614-.224.778-.248 3.226.621 3.643 2.56.242 6.958-13.168 4.39-13.74-1.024.31-2.375 2.736-2.895 3.643-.234.409-.422.98-.716 1.35l-.068.266c-.51 1.142-1.14 2.985-1.224 4.224m75.469 7.982c-.864.582-2.867 1.253-3.926 1.753-2.825 1.335-5.415 3.196-8.457 4.045-.403.112-1.087.298-1.455.018-.236-.179-.334-.552-.354-.835-.104-1.5 1.002-4.855 1.32-6.49.324-1.66.438-3.364.738-5.028.671-3.707 1.6-7.326 2.01-11.086.118-1.079.247-4.603.907-5.323.64-.698 2.046-.751 2.822-.276.354.216.723.695 1.098.827.436.154 4.317-.86 5.105-1.009 1.45-.272 2.938-.492 4.414-.495.367 0 .783.012 1.056.288-.033.802-.229 2.237-1.034 2.56-3.035 1.216-6.216 1.495-9.108 3.216-.115 1.454-.326 3.259-.495 4.728l1.579-.712c1.684-.752 4.82-2.256 6.73-1.776.705.178.449 1.691.165 2.239-.394.167-.772.318-1.15.523-1.343.49-8.018 3.838-8.472 4.958-.338.833-.34 1.959-.48 2.86a30 30 0 0 1-.665 3.176c-.115.426-.316.94-.216 1.382.365.27 1.351-.387 1.829-.582 3.224-1.311 6.98-4.02 10.547-3.986 2.41 1.793-1.492 3.648-2.848 4.272-.35.183-1.316.66-1.66.753"/><path d="M48.463 8.384c.695-.457 2.68-1.226 3.534-1.576q3.118-1.258 6.22-2.554c2.77-1.157 5.465-2.345 8.158-3.673.523-.259 1.273-.543 1.849-.54.533.006 1.018.078 1.531.286.547.221 1.49.49 1.453 1.251-.082.756-1.158 1.29-1.711 1.678a65 65 0 0 1-6.529 3.652c-.933.454-1.93.78-2.835 1.298-.64 1.402-.81 2.354-1.227 3.819-.898 3.16-1.5 6.408-2.183 9.623-.417 1.916-.49 3.998-1.388 5.774-.676 1.333-1.956 2.093-3.144 2.868-1.152.753-1.74 1.108-2.38-.542-.218-.736-.537-1.592-.22-2.301l-.01-.024c.286-1.45.758-3.232 1.091-4.717q.655-3 1.41-5.975c.172-.691.527-2.234.815-2.803.08-.633.846-2.075.624-2.589-.133.016-.071-.005-.177.05-1.126.566-2.446 1.45-3.739 1.412-1.03-.03-1.439-.931-1.532-1.83-.048-.47-.14-.692-.08-1.195.168-.303.18-.86.47-1.392m11.483 24.014c.541-.17 1.57-.141 1.706.598 1.097 5.96.6 12.045.123 18.043-.14.931.002 2.396-.541 3.182-.749 1.083-1.72 1.913-3.007 2.193-.711-2.149-1.38-4.303-2.092-6.449-.22-.669-.634-3.518-1.644-3.323-.828.65-.924 5.178-1.175 6.366-.286 1.35-1.496 1.522-2.62 2.201-.217.102-.485.22-.722.268-.249.049-.473-.036-.67-.186-.579-.438-.795-1.442-.891-2.14-.125-.895 1.034-5.459 1.28-6.746.506-2.663 1.026-5.404 1.142-8.115.034-.797.02-3.935.522-4.448.576-.59 2.133-.641 2.901-.645 1.725 2.41 2.054 6.588 3.494 9.193.08.145.344.19.52.194.599-.357.29-1.685.352-2.364.203-2.21.146-4.434.183-6.65.013-.795.328-1.028 1.037-1.155zm29.574-2.212c.516.013 1.283.02 1.748.24.134.532-1.174 4.753-1.409 5.658-1.031 3.97-1.99 8.024-2.794 12.049-.634 3.181-.95 6.687-2.175 9.703-.135.332-.453.953-.806 1.072-.608.203-2.08.192-2.605-.174-.887-.619-1.773-8.73-2.183-10.346l-.038-.145c-.393-3.88-1.408-7.834-1.533-11.78-.059-1.855 2.407-2.233 3.246-.944.867 1.331 2.047 9.849 2.648 10.558.593-.153 2.546-12.196 3.259-13.607.83-1.64.393-2.238 2.642-2.284M47.546 1.86c.456-.08.931-.18 1.278.174.184.444.092.841.039 1.295-.234 2.024-1.444 2.683-3.049 3.447-1.85.876-3.666 1.737-5.388 2.851-.942.61-1.67 3.304-1.041 4.118.817.52 1.839-.695 2.813-.743.614.29.369 1.645.21 2.194-1.233 1.196-3.934 2.943-4.682 4.402-.821 1.6-1.394 8.69-3.087 9.55-.815.34-4.331 1.147-4.94.481-.4-1.119 1.125-4.797 1.49-6.172l3.036-11.867c.26-1.011.407-2.51.881-3.392.502-.93 7.958-4.698 9.21-5.23 1.028-.436 2.069-.703 3.113-1.067z"/><path d="M26.078 6.488c2.142-1.263 4.427-2.1 6.732-3.007 1.03-.406 4.88-2.36 5.82-1.534.337.791.342 1.97-.427 2.526-.443.31-.844.597-1.311.87-2.047.94-4.603 2.058-6.304 3.477-.534.446-1.324 4.066-1.03 4.782.502 1.224 2.028-.688 2.808.133.18.485.037 1.341-.113 1.828-.28.282-.408.415-.731.64-1.455.758-3.427 1.369-3.97 3.08-.346 1.094-.504 2.263-.801 3.376-.35 1.309-2.05 6.757-3.066 7.311-.673.367-4.196 1.305-4.847 1.082a.58.58 0 0 1-.365-.3c-.215-.41.08-1.085.262-1.46.267-.555.55-1.103.825-1.653q.375-.838.78-1.66c.032-.253.948-2.323 1.089-2.744q1.515-4.528 2.91-9.093c.764-2.553 1.056-5.178 1.739-7.654m.109 27.43c.254-.088.97-.068 1.26-.087 1.79-.15 1.755 1.56 1.138 2.733-.385.733-1.813-.277-2.456.451-.105.947-.02 2.165-.056 3.15-.025.696-.095 1.521-.056 2.196.645.594 1.053-.037 1.693.312.543.394.256 1.662.296 2.139.292 1.555-2.132 1.36-2.434 2.049-.285.649-1.434 4.415-1.32 4.875.748.47 2.546-1.387 3.521-1.322.314.02.597.334.756.582.31.483.51 1.162.363 1.734-.225.871-3.147 2.434-3.974 2.927-.826.471-5.835 3.733-6.994 3.18-.5-.238-1.315-2.264-.853-2.9.185-.255.69-1.423.922-1.882q.74-1.5 1.42-3.028c1.8-4.098 2.072-8.38 2.4-12.788.33-4.422.419-3.914 4.374-4.32m11.589 24.224a2.2 2.2 0 0 1-.384-.301c-.471-.484-1.344-2.528-1.286-3.205.07-.82.81-1.662 1.134-2.412.377-.873.71-1.796 1.01-2.7.523-1.575.943-3.209 1.335-4.822.417-1.714 2.29-11.038 3.254-11.74.658-.478 4.645-1.373 5.445-1.169.344.088.605.33.757.65.14.295.117.544.01.844-.047.132-.09.247-.113.386-.014.08-.023.16-.039.24-.201 1.02-1.85.533-2.463.991-.156.117-.193.207-.253.39-.254.78-.38 1.663-.555 2.467-.266 1.222-.593 2.463-.766 3.701-.02.139.009.207.114.31.235.232.632.252.937.241a8 8 0 0 1 .901.023c.18.801.26 1.582-.634 1.922-1.508.575-1.967.925-2.322 2.554-.328 1.506-.663 3.117-1.059 4.617-.056.212-.004.349.097.524 1.155.248 4.063-3.53 4.053.687-.718.492-1.838 1.424-2.6 1.782-.407.354-.756.49-1.137.784-1.1.695-4.425 2.896-5.436 3.236m-6.079-24.079c1.797-1.273 7.102-2.986 9.325-2.967-.005.605.073 2.69-.4 3.05-1.436 1.088-4.002 1.437-5.307 2.649-.301.278-.19 3.87-.188 4.466 1.319-.337 2.39-.86 3.753-1.18.374.914.356 1.057.324 2.02l-.004.085c-1.162 1.439-2.727 2.04-3.93 3.36-.804.882-.697 2.88-.688 4.05.013 1.912.02 3.452-.443 5.344-.597.551-2.937 2.443-3.693 1.739-.542-1.394-.096-10.768-.013-12.85.017-.283.013-.32-.019-.587.357-2.32-.103-7.096 1.283-9.18m58.022 13.873c.042-.726.294-1.852.446-2.61q.483-2.366.992-4.729c.52-2.452 1.008-4.933 1.549-7.381.054-.248.312-.986.462-1.066.622-.335 3.15-.06 3.8-.047.658.011 2.486.52 2.922.78.389.586-.4 1.987-.912 2.22-.715.324-2.18.044-3.035.06-.125.136-.343.375-.399.569-.347 1.201-.577 2.727-.645 3.98-.014.267.132.62.338.797.754.646 2.91-.66 3.18.504.081.347.066.827-.088 1.173-.34.764.122 1.174-.887 1.558-.599.227-2.674.382-2.87.934-.463 1.313-.686 3.562-.937 4.936-.244 1.332-.739 2.677-.776 3.946.654.618 1.657.007 2.54.084-.042 3.018-1.032 3.03-3.662 4.03-.767.225-2.005.767-2.781.758-1.027-.012-.999-2.081-.86-2.762.498-2.46 1.172-4.78 1.497-7.286zm-20.743-1.092c-1.056-.919-3.907-1.318-4.688-3.427-.517-1.397-.919-3.012-.296-4.453.798-1.822 2.713-3.097 4.473-3.824 1.139-.471 3.5-.989 4.02.57.308.92.075 1.864-.947 2.08-1.152.243-2.292.48-2.948 1.572-.241.38-.357.852-.456 1.3.24.851.493 1.18 1.336 1.6 1.683.839 2.38 1.82 2.925 3.6.615 2.01.606 4.902-.356 6.804-.61 1.209-2.862 3.013-4.189 3.365-.657.174-1.143.23-1.775-.14-1.246-.786-2.11-2.358-2.592-3.724-.096-.424-.131-.712.082-1.092.728-1.3 1.508-.044 2.425.178.999.242 1.943-.624 2.514-1.308.25-.298.616-.739.709-1.272.092-.534.236-1.419-.237-1.83m6.549-11.977c.27-.05.692.03.85.248.313.429.435 1.762.493 2.284.224 2.007.089 4.02.31 6.03.316 3.822 1.162 8.298.903 12.178-.019.277-1.277 1.662-1.53 1.919-.527-.004-1.033-.058-1.209-.659-.48-1.736-.69-3.726-.814-5.531-.312-4.545-.416-9.106-.778-13.65-.113-1.43.423-2.311 1.775-2.819"/></g><defs><clipPath id="a"><path fill="#fff" d="M0 0h100v61H0z"/></clipPath></defs></svg>