<svg xmlns="http://www.w3.org/2000/svg" width="100" height="61" fill="none" viewBox="0 0 1554 714">
    <path fill="#000"
        d="M1201.04 372.402c3.55-1.32 17.68-.99 22.13-.66 22.31 1.42 51.47 13.97 65.54 32.18 27 34.91-27.47 75.82-49.04 93.04 4.82 5.8 15.72 16.64 18.33 23.21 11.08 27.84.14 74.59-3.04 103.78-2.48 22.66-1.58 38.29-9.02 59.29-6.47 4.94-45.81 23.91-49.8 21.78-33.21-17.71-12.7-59.12-7.83-86.79 2.45-13.88 3.37-27.64 5.92-40.65.02-7.15 1.6-28.61-3.88-32.46-11.31-.87-32.73 12.17-42.04 18.36-1.15 8.1-.58 17.09-1.9 25.31-3.87 24.13-9.85 51.75-15.55 75.19-1.66 6.82-57.11 15.45-64.57 10.07-7.81-5.65-3.59-18.36-2.7-26.78 3.57-18.11 8.88-33.56 12.04-51.48 9.59-48.55 8.12-98.74 15.48-147.58 2.26-15.04.75-30.43 10.24-42.57 7.91-10.12 19.67-3.37 30.06-7.02 5.62-1.97 10.82-7.6 16.14-10.41 17.24-9.55 34.17-13.68 53.49-15.81m-35.87 59.32c-6.32 11.24-20.49 46.76-12.74 58.03 5.89 1.49 25.56-7.67 31.97-10.54 10.98-6.02 52.16-34.22 46.31-49.15-2.29-5.87-34.25-8.77-39.32-6.66-11.49 1.28-15.75 3.23-26.22 8.32M151.227 22.469c13.29-.915 26.634.616 39.37 4.516 15.936 4.98 32.949 16.53 39.581 31.9 15.319 38.203 6.279 85.036-5.217 122.558-20.274 66.173-67.017 112.7-128.102 143.721-14.712 5.728-34.93 10.532-48.626.646-12.915-9.322-30.542-34.842-32.143-51.417-6.081-62.935 23.812-134.769 57.783-186.778 12.904-18.641 41.335-52.294 61.561-61.393 3.843-1.729 11.434-3.001 15.793-3.753M100.335 261.89c19.915-5.406 39.708-38.851 49.89-56.026 16.437-27.726 27.231-59.994 28.72-92.326.503-10.926.987-32.77-14.816-34.062-5.421 1.29-14.209 3.407-18.429 7.12-36.629 32.215-58.196 91.447-58.663 139.532-.127 13.015-1.876 33.771 13.298 35.762M1303.97 260.69c3.78-4.243 16.05-16.326 17.59-20.308 21.3-55.282 41.17-110.507 67.71-163.653 7.11-14.237 9.33-24.482 12.56-39.79 1.55-7.347 12.7-26.882 21.74-26.55 16.59.61 34.05 1.412 50.72 2.152 24.57 1.744 61.17-6.164 79.61 13.246.28 19.388-4.5 22.123-14.62 38.47-3.07 3.538-5.73 5.55-10.79 6.567-21.31 4.274-68.05-7.905-84.68 6.36-3.7 3.177-10.38 37.323-9.55 42.243 4.14 4.996 18.57-.621 24.56-2.17 14.92-3.859 26.64-7.718 42.01-2.693 4.23 2.482 4.31 2.737 7.24 6.808 1.88 5.232 1.72 8.283 1.69 14.013-.12 21.52-8.7 24.895-26.3 31.808-20.4 8.013-68.06 11.963-79.34 31.899-7.02 12.403-9.01 36.172-13.12 49.727 20.42-4.229 39.16-7.175 60.96-12.397 14.12-3.384 63.85-19.847 75.86-12.955 11.88 6.814 5.78 44.5-3.2 52.922-7.01 9.761-26.61 3.154-37.73 4.063-47.06 3.848-92.61 19.782-136.05 37.488-6.62 2.694-15.91 4.042-23.09 5.699-3.52-1.08-8.08-2.314-10.88-4.736-12.5-10.805-21.33-31.21-17.68-47.772l.57-2.702c1.45-3.878 1.8-4.296 4.21-7.739M875.534 23.403c7.35-.903 29.51-.322 30.64 9.102 1.71 14.356.33 29.72-.45 44.196-2.25 40.236-5.48 80.41-9.69 120.489-2.55 22.827-7.31 46.967-7.72 69.744-.43 23.131-1.24 39.234-14.1 59.215-13.05 3.587-22.54 3.78-35.88 2.021-12.04-22.23-21.89-48.5-35.26-69.885-6.29-10.055-34.86-61.657-43.64-64.012-2.654 1.033-2.789.844-4.215 4.373-5.111 12.647-9.976 25.636-15.096 38.277a1554 1554 0 0 1-32.647 75.765c-3.842 8.511-7.077 15.393-11.481 23.624-30.893 1.468-36.696-13.473-36.24-41.746 21.465-31.341 25.068-54.513 35.926-89.179 5.15-16.446 11.279-32.623 15.752-49.273 3.8-14.143 6.403-29.607 11.434-43.329 1.601-4.367 2.86-7.271 7.347-9.126 8.287-3.427 36.1-7.122 44.18-3.678 16.97 7.236 54.11 91.861 60.65 94.559 2.54-1.584 3.66-3.445 4.16-6.507 7.31-44.862 6.93-90.734 15.2-135.54 1.42-7.712 2.12-18.835 6.49-25.478 1.73-2.63 11.43-3.253 14.64-3.612M128.565 547.112c-6.471 6.28-18.876 17.98-23.189 25.73-2.551 4.59-6.076 22.58-7.688 28.89-5.443 21.3-11.848 42.24-17.12 63.54-3.595 14.53-3.787 28.68-9.102 42.88-3.494 2.86-10.68 5.78-15.433 5.19-14.384-1.78-36.491 5.14-48.088-5.17-4.458-3.97-8.9-13.48-7.765-18.73 6.478-29.93 22.086-58.08 29.887-87.99 14.802-52.93 28.036-106.13 45.152-158.39 3.55-7.42 1.625-31.74 4.433-37.33 17.433-33.75 64.129-63.411 103.551-52.582 62.183 17.082 68.691 54.262 33.503 102.662-25.511 35.09-44.169 50.4-75.629 79.7-4.16 3.81-8.493 7.66-12.512 11.6m6.862-63.42c16.439-13.8 31.05-28.22 40.135-47.94 4.985-10.83 12.545-26.43 3.19-36.72-3.163-3.48-14.715-6.03-18.962-4.79-5.071.88-16.671 4.27-17.919 8.04-5.926 17.87-20.495 71.79-22.253 88.04l.746 2c5.561 1.09 10.875-5.07 15.063-8.63M195.385 693.832c-14.757-16.13-21.643-52.6-20.488-73.8 3.428-62.92 29.286-119.49 71.901-165.52 12.991-14.03 18.099-30.11 42.501-27.27 13.612 1.58 23.187 7.37 33.005 16.53l3.816 13.32c5.222 3.78 9.239 5.56 15.019 8.38 7.52 12.25 5.939 15.82 9.47 27.52 9.013 29.84 7.355 51.26-.071 81.46-4.001 13.13-7.845 34.06-14.358 45.68-13.153 23.47-34.445 51.85-58.179 65.14-23.268 13.02-48.576 27.58-74.832 14.68-2.751-1.92-5.196-4-7.784-6.12m60.168-57.7c5.191-5.58 8.236-8.44 13.063-14.56 18.572-23.72 32.217-66.78 28.511-97.05-1.141-9.31-5.613-24.4-8.252-33.84-23.875 26.63-46.991 106.22-43.791 141.46.311 3.43.412 4.91 2.608 7.62 4.225.92 4.849-.67 7.861-3.63M478.638 376.422c28.357-7.48 81.981 12.45 93.952 41.25 18.814 45.25-24.451 84.38-59.264 105.52-8.939 5.43-17.426 13.08-26.904 17.89-14.537 7.17-29.146 13.61-43.731 20.27-4.574 31.93-16.437 64.47-19.353 96.98-1.214 13.54 10.22 18.79-2.329 31.55-10.031 7.33-40.24 16.65-53.422 19.77-4.099.97-12.415.94-15.49-1.89-4.63-4.28-3.909-32.56-2.739-37.91 1.218-5.57 6.24-19.51 8.149-25.17a597 597 0 0 0 9.634-31.99c14.55-52.1 24.98-105.36 39.18-157.47 3.147-11.55-21.589-29.95-6.92-45.3 21.157-22.14 49.666-30.43 79.237-33.5m5.392 102.28c9.775-10.43 18.72-20.63 19.884-35.89 1.062-13.93-26.224-23.02-29.564-13.25-7.013 20.53-14.303 44.94-17.705 66.33l.811 1.82c4.82-1.16 17.294-11.28 21.643-14.58 1.58-1.62 3.217-2.95 4.931-4.43M1485.34 380.362c28.26-3.01 18.72 33.77 12.7 48.71-29.52 7.56-77.37 2.11-106.37 18.24-4.3 6.58-12.69 20.57-7.25 27.81 14.58 5.37 68.81-11.9 82.46 2.76 3.66 3.93-2.19 32.35-6.46 34.68-21.33 11.64-59.22-2.71-81.88 8.55-14.45 16.5-17.09 68.02-21.51 90.03l-.27 1.32c9.68-.11 15.84.21 25.97-.36 24.32-1.38 52.57-7.75 76.26-2.48 11.65 11.37 12.23 26.6 3.27 39.95-22.24 15.54-71.82 6.46-99.36 13.64-22.45 5.85-41.45 24.36-64.8 25.59-6.03.32-16.26-.35-20.54-5.28-11.42-13.11 30.53-144.92 34.35-167.4 5.1-30 5.79-59.93 8.17-90.14.52-6.61 1.23-15.98 6.75-20.37 11.93-9.49 31.48-11.96 45.98-9.86 22.75 3.29 51.98-6.55 74.89-10.24 12.52-2.01 25.13-2.84 37.64-5.15" />
    <path fill="#000"
        d="M735.306 20.22c6.752 1.634 9.876 7.854 10.743 13.24 1.089 5.066 2.199 32.745-1 35.417-14.183 11.843-32.633 17.416-49.163 25.419-25.418 12.306-54.893 25.249-76.385 43.966l-1.298 1.142c-1.791 7.205-8.171 20.37-6.399 26.09 8.078 9.299 20.453-7.448 32.232-4.373 9.517 8.465-.151 27.133-4.711 36.116-8.33 5.225-41.972 19.763-52.694 24.86-6.301 11.776-9.194 20.003-13.406 32.671 24.557-6.681 46.764-25.739 72.113-29.628 11.701-1.795 12.592 20.638 12.34 28.053-15.014 24.033-41.134 36.466-65.368 49.789-18.886 8.752-38.262 28.483-58.47 37.876-12.412 5.768-22.336 17.054-37.955 6.766-11.953-7.874-18.995-20.421-22.473-33.485 6.176-28.197 17.644-36.753 29.092-61.804l45.308-100.851c6.206-13.552 19.763-49.723 32.238-56.264 13.609-7.136 32.321-17.39 46.323-23.931 33.811-15.794 72.811-43.54 108.933-51.07M1315.43.08c50.95-1.48 36.83 17.693 29.83 53.264-7.95 40.386-19.14 77.012-33.11 115.786-7.02 17.424-11.89 40.359-20.34 56.754-9.93 19.274-9.38 42.973-18.16 60.509-14.23 10.289-42.29 35.411-59.24 19.764-31.44-29.008-13.55-65.945-17.28-103.717-.08-.261-.17-.523-.25-.785-7.78-47.474-12.83-95.2-10.68-143.362.6-4.425-.97-20.073 1.78-23.5 12.72-15.877 51.75-4.914 54.86 15.168 2.62 16.98-1.83 30.512-1.45 46.862.3 12.716 3.07 24.147 4.87 36.526 1.49 9.166 3.12 18.381 4.73 27.541l1.68.603c8.23-6.784 44.26-132.7 53.18-150.213 3.16-6.22 2.88-7.528 9.58-11.2M1014.51 11.433c20.56-.706 33.3 2.389 51.71 11.854 14.36 7.38.85 31.593-5.23 40.963-8.49.959-20.08-.382-28.87.357-19.62 1.648-29.82 10.77-41.636 24.617-7.51 31.69 26.866 27.522 46.826 42.154 17.37 12.732 27.32 30.004 31.16 51.08 13.17 72.244-23.82 126.328-95.836 140.483-12.1 2.291-35.43 2.263-47.14-1.854-23.16-8.139-18.01-36.822-11.32-54.823 46.12-1.912 96.336-7.374 86.166-68.852-5.676-19.174-34.036-21.256-50.446-32.05-38.42-25.285-28-83.38-8.21-117.303 11.67-20.02 50.22-32.147 72.826-36.626M900.004 397.482c2.85-.29 5.72-.55 8.59-.48 11.96.28 25.77 4.73 33.74 13.97 13.3 15.41 12.15 45.26 10.6 63.99-1.53 18.41-4.38 36.77-6.27 55.16-2.71 26.31-6.29 108.69-25.9 124.23-8.21 6.5-26.66 12.67-37.16 11.14a20.17 20.17 0 0 1-13.89-8.87c-10.32-15.62-.34-47.95 3.72-65.39-.15-8.81 7.66-25.52 1.19-35.19-5.19-7.74-17.87-.15-23.4 3.92-4.51 8.88-6.82 22.5-13.54 29-6.22 6.03-32.54 5-41.3 4.25-9.84-8.63-11.86-11.98-15.65-24.08 10.76-24.81 27.03-50.91 39.88-75.24 15.99-30.3 41.66-56.43 61.11-84.53 5.53-7.99 9.4-9.61 18.28-11.88m-12.61 102.3c13.13-10.12 39.68-40.29 3.28-36.3-3.9 1.3-6.13 1.4-7.96 5.75-3.59 8.52-10.68 25.04-7.65 33.83 4.39 3.58 8.39-.36 12.33-3.28M452.825 62.935c19.689-6.74 117.399-44.476 131.325-37.781 2.004.963 2.803 3.239 3.165 5.28 2.39 13.479-10.935 45.444-19.007 56.333-31.749 9.347-62.639 18.709-95.111 24.819-15.475 2.912-22.087 12.997-23.495 27.477-.964 6.672-3.998 15.014-1.703 21.812 8.936 3.812 50.887-19.99 57.384-3.452 2.577 6.56-3.18 38.136-7.186 44.327-15.093 23.326-68.367 21.776-82.95 46.371-15.777 26.609-15.716 75.332-48.401 92.41-15.632 6.426-30.238-31.905-31.924-46.466 9.366-13.535 21.788-46.196 27.248-62.459 4.88-14.536 6.043-26.175 13.369-42.048 2.397-3.514 4.861-8.165 6.995-11.935 7.703-16.05 16.102-33.886 22.749-50.347 8.124-20.118 11.371-37.86 24.102-56.354 2.685-1.03 5.365-1.831 8.105-2.692 5.392-2.15 9.815-3.564 15.335-5.295M285.933 46.21c9.554-5.07 42.091-14.321 52.762-16.42C357.836 26.023 441.787.27 454.397 9.84c3.254 9.167-4.851 18.026-8.033 25.902-15.361 38.02-74.423 28.538-104.718 47.866-7.977 5.088-10.095 19.532-11.527 28.274 12.67-1.395 35.817-5.059 46.989-.666 10.213 11.855-12.422 44.836-21.141 54.3-5.639 3.294-9.308 4.53-15.595 6.129a110 110 0 0 0-38.654 18.147c-5.89 14.646-13.036 29.913-19.397 44.28-5.4 12.199-17.652 49.156-26.585 56.096-4.38 4.894-12.352 12.329-15.629 16.297-11.247 2.37-25.97.228-37.117-2.039-7.563-19.806-3.517-37.551 7.251-55.256 21.151-34.78 32.724-72.277 47.268-110.063 4.588-11.92 8.729-24.564 12.464-36.793 5.127-20.283 5.509-37.216 15.96-56.103" />
    <path fill="#000"
        d="M729.282 407.332c17.139-3.12 32.642 9.08 45.222 19.58 4.09 3.42 5.12 7.92 6.57 12.91-2.95 14.31-9.32 28.8-11.94 42.89-8.92 48.03-21.813 95.88-23.379 144.84 13.309-7.12 49.109-20.36 63.619-15.19a26.96 26.96 0 0 1 15.23 13.99c9.88 21.44-29.4 37.14-43.1 43.5q-4.305 1.695-8.67 3.21c-19.554 6.8-79.92 24.16-101.49 19.21-6.572-1.51-13.274-24.57-15.924-32.51 3.792-15.7 9.568-32.05 13.991-47.61 12.225-43.03 26.548-85.47 34.144-129.63 3.453-20.08 8.642-40.65 13.232-60.52 2.073-8.98 4.518-10.29 12.495-14.67M994.524 383.272c9.606-.22 18.866-.08 28.396 1.29 6.87.99 21.45 2.79 25.12 9.37 13.19 23.63-10.6 184.12-15.92 218.67-2.84 18.49-3.88 40.96-11.05 58.27-4.57 11.03-13.73 13.79-24.036 17.77-8.83 3.37-25.05 9.52-33.88 5.13-8.33-4.51-13.24-26.42-11.14-34.6 7.06-27.42 12.69-53.9 17.99-81.73 6.76-35.47 14.21-69.8 14.65-106.25.31-25.13-10.16-56.99-1.73-81.64 1.82-4.37 7.44-5.4 11.6-6.28M621.151 497.062c14.338-3.32 29.801 4.01 40.848 12.65 6.711 22.77-6.85 53.46-12.014 75.97-5.164 20.83-9.617 42.23-16.96 62.4-11.392 31.28-46.393 54.81-78.828 58.18-27.439 2.85-43.078-24.32-44.164-48.04-.183-7.44 1.021-17.84 1.447-25.68 1.273-23.49 2.912-48.37 8.286-71.33 1.67-7.13 6.252-17.24 8.973-24.68 46.726-1.68 55.358 6.03 42.41 50.31-1.992 6.81-4.706 28.95-1.337 34.75l2.31.44c8.429-3.52 10.831-11.4 14.48-18.9 11.405-22.39 12.992-45.24 16.094-69.52 2.214-17.33-.412-31.82 18.455-36.55M1120.89 5.427c19.22-.315 48.89 2.634 48.97 28.657.16 57.243-13.87 114.449-17.13 171.616-1.1 19.456 2.64 39.586.55 59.08-1.73 15.906-25.9 36.116-38.19 44.822-26.82 14.455-41.76-23.499-39.4-32.167 9.85-36.125 13.5-77.2 16.12-114.581 3.06-43.676 19.07-89.013 9.99-132.114.47-1.47.97-2.927 1.52-4.37 3.36-8.704 8.74-17.143 17.57-20.943" />
</svg>